<?xml version="1.0" encoding="UTF-8" standalone="no"?><!DOCTYPE svg PUBLIC "-//W3C//DTD SVG 1.1//EN" "http://www.w3.org/Graphics/SVG/1.1/DTD/svg11.dtd"><svg width="100%" height="100%" viewBox="0 0 1166 1166" version="1.1" xmlns="http://www.w3.org/2000/svg" xmlns:xlink="http://www.w3.org/1999/xlink" xml:space="preserve" xmlns:serif="http://www.serif.com/" style="fill-rule:evenodd;clip-rule:evenodd;stroke-miterlimit:1.41421;"><rect x="276.816" y="142.769" width="118.587" height="36.3" style="fill:none;stroke:#2d3384;stroke-width:4.69px;"/><path d="M418.253,134.297l-82.144,31.866l-82.143,-31.866l82.143,-31.863l82.144,31.863Z" style="fill:#fff;fill-rule:nonzero;"/><path d="M418.253,134.297l-82.144,31.866l-82.143,-31.866l82.143,-31.863l82.144,31.863Z" style="fill:none;stroke:#2d3384;stroke-width:4.69px;"/><g><clipPath id="_clip1"><path d="M419.863,134.297l-82.141,31.866l-82.141,-31.866l82.141,-31.863l82.141,31.863Z"/></clipPath><g clip-path="url(#_clip1)"><path d="M359.188,297.216l90.728,-124.872" style="fill:none;stroke:#2d3384;stroke-width:3.23px;"/><path d="M367.672,303.381l90.728,-124.875" style="fill:none;stroke:#2d3384;stroke-width:3.23px;"/><path d="M333.344,278.438l90.725,-124.872" style="fill:none;stroke:#2d3384;stroke-width:3.23px;"/><path d="M341.828,284.603l90.725,-124.872" style="fill:none;stroke:#2d3384;stroke-width:3.23px;"/><path d="M350.313,290.766l90.725,-124.872" style="fill:none;stroke:#2d3384;stroke-width:3.23px;"/><path d="M358.797,296.931l90.725,-124.872" style="fill:none;stroke:#2d3384;stroke-width:3.23px;"/><path d="M307.5,259.663l90.725,-124.875" style="fill:none;stroke:#2d3384;stroke-width:3.23px;"/><path d="M315.984,265.825l90.725,-124.872" style="fill:none;stroke:#2d3384;stroke-width:3.23px;"/><path d="M324.469,271.991l90.725,-124.875" style="fill:none;stroke:#2d3384;stroke-width:3.23px;"/><path d="M332.953,278.153l90.725,-124.872" style="fill:none;stroke:#2d3384;stroke-width:3.23px;"/><path d="M281.656,240.884l90.725,-124.871" style="fill:none;stroke:#2d3384;stroke-width:3.23px;"/><path d="M290.141,247.047l90.725,-124.872" style="fill:none;stroke:#2d3384;stroke-width:3.23px;"/><path d="M298.625,253.213l90.725,-124.872" style="fill:none;stroke:#2d3384;stroke-width:3.23px;"/><path d="M307.11,259.375l90.724,-124.872" style="fill:none;stroke:#2d3384;stroke-width:3.23px;"/><path d="M272.778,234.434l90.725,-124.871" style="fill:none;stroke:#2d3384;stroke-width:3.23px;"/><path d="M281.262,240.6l90.726,-124.872" style="fill:none;stroke:#2d3384;stroke-width:3.23px;"/><path d="M449.913,172.344l90.728,-124.872" style="fill:none;stroke:#2d3384;stroke-width:3.23px;"/><path d="M458.397,178.506l90.728,-124.872" style="fill:none;stroke:#2d3384;stroke-width:3.23px;"/><path d="M424.069,153.566l90.725,-124.872" style="fill:none;stroke:#2d3384;stroke-width:3.23px;"/><path d="M432.553,159.731l90.725,-124.875" style="fill:none;stroke:#2d3384;stroke-width:3.23px;"/><path d="M441.038,165.894l90.725,-124.872" style="fill:none;stroke:#2d3384;stroke-width:3.23px;"/><path d="M449.522,172.059l90.725,-124.871" style="fill:none;stroke:#2d3384;stroke-width:3.23px;"/><path d="M398.225,134.788l90.725,-124.872" style="fill:none;stroke:#2d3384;stroke-width:3.23px;"/><path d="M406.709,140.953l90.726,-124.872" style="fill:none;stroke:#2d3384;stroke-width:3.23px;"/><path d="M415.194,147.116l90.725,-124.872" style="fill:none;stroke:#2d3384;stroke-width:3.23px;"/><path d="M423.678,153.281l90.725,-124.872" style="fill:none;stroke:#2d3384;stroke-width:3.23px;"/><path d="M372.381,116.013l90.725,-124.875" style="fill:none;stroke:#2d3384;stroke-width:3.23px;"/><path d="M380.866,122.175l90.725,-124.872" style="fill:none;stroke:#2d3384;stroke-width:3.23px;"/><path d="M389.35,128.341l90.725,-124.872" style="fill:none;stroke:#2d3384;stroke-width:3.23px;"/><path d="M397.834,134.503l90.725,-124.872" style="fill:none;stroke:#2d3384;stroke-width:3.23px;"/><path d="M363.503,109.563l90.725,-124.872" style="fill:none;stroke:#2d3384;stroke-width:3.23px;"/><path d="M371.988,115.728l90.725,-124.875" style="fill:none;stroke:#2d3384;stroke-width:3.23px;"/><path d="M255.809,222.106l90.725,-124.872" style="fill:none;stroke:#2d3384;stroke-width:3.23px;"/><path d="M264.294,228.272l90.725,-124.875" style="fill:none;stroke:#2d3384;stroke-width:3.23px;"/><path d="M229.966,203.328l90.725,-124.872" style="fill:none;stroke:#2d3384;stroke-width:3.23px;"/><path d="M238.45,209.494l90.725,-124.872" style="fill:none;stroke:#2d3384;stroke-width:3.23px;"/><path d="M246.934,215.656l90.726,-124.872" style="fill:none;stroke:#2d3384;stroke-width:3.23px;"/><path d="M255.419,221.822l90.725,-124.872" style="fill:none;stroke:#2d3384;stroke-width:3.23px;"/><path d="M204.122,184.553l90.725,-124.875" style="fill:none;stroke:#2d3384;stroke-width:3.23px;"/><path d="M212.606,190.716l90.725,-124.872" style="fill:none;stroke:#2d3384;stroke-width:3.23px;"/><path d="M221.091,196.881l90.725,-124.872" style="fill:none;stroke:#2d3384;stroke-width:3.23px;"/><path d="M229.575,203.044l90.725,-124.872" style="fill:none;stroke:#2d3384;stroke-width:3.23px;"/><path d="M178.275,165.775l90.725,-124.872" style="fill:none;stroke:#2d3384;stroke-width:3.23px;"/><path d="M186.759,171.938l90.725,-124.872" style="fill:none;stroke:#2d3384;stroke-width:3.23px;"/><path d="M195.244,178.103l90.725,-124.872" style="fill:none;stroke:#2d3384;stroke-width:3.23px;"/><path d="M203.728,184.269l90.725,-124.875" style="fill:none;stroke:#2d3384;stroke-width:3.23px;"/><path d="M169.4,159.325l90.725,-124.872" style="fill:none;stroke:#2d3384;stroke-width:3.23px;"/><path d="M177.884,165.491l90.726,-124.872" style="fill:none;stroke:#2d3384;stroke-width:3.23px;"/><path d="M346.534,97.234l90.725,-124.871" style="fill:none;stroke:#2d3384;stroke-width:3.23px;"/><path d="M355.019,103.397l90.725,-124.872" style="fill:none;stroke:#2d3384;stroke-width:3.23px;"/><path d="M320.691,78.456l90.725,-124.872" style="fill:none;stroke:#2d3384;stroke-width:3.23px;"/><path d="M329.175,84.622l90.725,-124.872" style="fill:none;stroke:#2d3384;stroke-width:3.23px;"/><path d="M337.66,90.784l90.724,-124.871" style="fill:none;stroke:#2d3384;stroke-width:3.23px;"/><path d="M346.144,96.95l90.725,-124.872" style="fill:none;stroke:#2d3384;stroke-width:3.23px;"/><path d="M294.847,59.678l90.725,-124.872" style="fill:none;stroke:#2d3384;stroke-width:3.23px;"/><path d="M303.331,65.844l90.725,-124.872" style="fill:none;stroke:#2d3384;stroke-width:3.23px;"/><path d="M311.816,72.009l90.725,-124.875" style="fill:none;stroke:#2d3384;stroke-width:3.23px;"/><path d="M320.3,78.172l90.725,-124.872" style="fill:none;stroke:#2d3384;stroke-width:3.23px;"/><path d="M269,40.903l90.728,-124.872" style="fill:none;stroke:#2d3384;stroke-width:3.23px;"/><path d="M277.484,47.066l90.729,-124.872" style="fill:none;stroke:#2d3384;stroke-width:3.23px;"/><path d="M285.969,53.231l90.728,-124.872" style="fill:none;stroke:#2d3384;stroke-width:3.23px;"/><path d="M294.453,59.394l90.725,-124.872" style="fill:none;stroke:#2d3384;stroke-width:3.23px;"/><path d="M260.125,34.453l90.725,-124.872" style="fill:none;stroke:#2d3384;stroke-width:3.23px;"/><path d="M268.61,40.619l90.724,-124.875" style="fill:none;stroke:#2d3384;stroke-width:3.23px;"/></g></g><path d="M419.863,134.297l-82.141,31.866l-82.141,-31.866l82.141,-31.863l82.141,31.863Z" style="fill:none;stroke:#2d3384;stroke-width:4.69px;"/><path d="M415.713,134.297l0,78.656" style="fill:none;stroke:#2d3384;stroke-width:4.69px;"/><path d="M415.713,210.728l-11.419,19.778l22.84,0l-11.421,-19.778l-11.419,19.778l22.84,0l-11.421,-19.778Z" style="fill:none;stroke:#2d3384;stroke-width:4.69px;"/><rect x="447.197" y="58.988" width="103.256" height="145.206" style="fill:none;stroke:#2d3384;stroke-width:4.69px;"/><rect x="550.234" y="58.988" width="103.25" height="145.206" style="fill:none;stroke:#2d3384;stroke-width:4.69px;"/><path d="M468.778,88.028l60.113,0" style="fill:none;stroke:#2d3384;stroke-width:4.69px;"/><path d="M468.778,108.197l60.113,0" style="fill:none;stroke:#2d3384;stroke-width:4.69px;"/><path d="M468.778,128.363l60.113,0" style="fill:none;stroke:#2d3384;stroke-width:4.69px;"/><path d="M468.778,148.531l60.113,0" style="fill:none;stroke:#2d3384;stroke-width:4.69px;"/><path d="M468.778,168.7l60.113,0" style="fill:none;stroke:#2d3384;stroke-width:4.69px;"/><path d="M574.856,88.028l60.094,0" style="fill:none;stroke:#2d3384;stroke-width:4.69px;"/><path d="M574.856,108.197l60.094,0" style="fill:none;stroke:#2d3384;stroke-width:4.69px;"/><path d="M574.856,128.363l60.094,0" style="fill:none;stroke:#2d3384;stroke-width:4.69px;"/><path d="M574.856,148.531l60.094,0" style="fill:none;stroke:#2d3384;stroke-width:4.69px;"/><path d="M574.856,168.7l60.094,0" style="fill:none;stroke:#2d3384;stroke-width:4.69px;"/><path d="M701.547,166.719l-22.594,0l0,-93.575l11.281,-20.303l11.313,20.303l0,93.575Z" style="fill:none;stroke:#2d3384;stroke-width:4.69px;"/><path d="M690.234,182.584c-6.25,0 -11.281,-5.056 -11.281,-11.293l0,-4.572l22.594,0l0,4.572c0,6.237 -5.063,11.293 -11.313,11.293Z" style="fill:none;stroke:#2d3384;stroke-width:4.69px;"/><path d="M678.953,155.963l22.594,0" style="fill:none;stroke:#2d3384;stroke-width:4.69px;"/><path d="M678.953,73.144l22.594,0" style="fill:none;stroke:#2d3384;stroke-width:4.69px;"/><path d="M684.391,62.05l10.812,0" style="fill:none;stroke:#2d3384;stroke-width:4.69px;"/><path d="M836.203,1081.84l-13.406,-22.525l93.344,-55.481l26.937,-0.775l-13.562,23.3l-93.313,55.481Z" style="fill:none;stroke:#2d3384;stroke-width:4.69px;"/><path d="M813.672,1079.99c-3.688,-6.222 -1.625,-14.263 4.594,-17.96l4.531,-2.709l13.406,22.525l-4.562,2.709c-6.219,3.697 -14.25,1.653 -17.969,-4.565Z" style="fill:none;stroke:#2d3384;stroke-width:4.69px;"/><path d="M833.547,1052.94l13.375,22.525" style="fill:none;stroke:#2d3384;stroke-width:4.69px;"/><path d="M916.141,1003.84l13.375,22.525" style="fill:none;stroke:#2d3384;stroke-width:4.69px;"/><path d="M930.422,1002.69l6.406,10.784" style="fill:none;stroke:#2d3384;stroke-width:4.69px;"/><rect x="397.831" y="17.997" width="14.866" height="28.659" style="fill:none;stroke:#2d3384;stroke-width:4.69px;"/><path d="M413.2,17.997l-15.872,0c-2.24,0 -4.062,-1.819 -4.062,-4.062l0,-0.688c0,-2.244 1.822,-4.066 4.062,-4.066l15.872,0c2.241,0 4.063,1.822 4.063,4.066l0,0.688c0,2.243 -1.822,4.062 -4.063,4.062Z" style="fill:none;stroke:#2d3384;stroke-width:4.69px;"/><path d="M389.525,101.403l29.534,0c8.728,-5.09 14.613,-14.531 14.613,-25.369c0,-16.225 -13.153,-29.378 -29.378,-29.378c-16.225,0 -29.378,13.153 -29.378,29.378c0,10.838 5.878,20.279 14.609,25.369Z" style="fill:none;stroke:#2d3384;stroke-width:4.69px;"/><path d="M1017.58,640.45l0,0.966c0,3.225 -2.625,5.809 -5.812,5.809l-22.719,0c-3.188,0 -5.813,-2.584 -5.813,-5.809l0,-0.966c0,-3.231 2.625,-5.844 5.813,-5.844l22.719,0c3.187,0 5.812,2.613 5.812,5.844Z" style="fill:none;stroke:#2d3384;stroke-width:4.69px;"/><path d="M1042.45,730.284c0,15.519 -8.406,29.01 -20.906,36.304l-42.25,0c-12.5,-7.294 -20.906,-20.785 -20.906,-36.304c0,-19.556 13.312,-35.981 31.375,-40.69l0,-42.144l21.312,0l0,42.144c18.063,4.709 31.375,21.134 31.375,40.69Z" style="fill:none;"/><clipPath id="_clip2"><path d="M1042.45,730.284c0,15.519 -8.406,29.01 -20.906,36.304l-42.25,0c-12.5,-7.294 -20.906,-20.785 -20.906,-36.304c0,-19.556 13.312,-35.981 31.375,-40.69l0,-42.144l21.312,0l0,42.144c18.063,4.709 31.375,21.134 31.375,40.69Z"/></clipPath><g clip-path="url(#_clip2)"><path d="M977.21,903.322l109.143,-109.144" style="fill:none;stroke:#2d3384;stroke-width:3.23px;"/><path d="M984.625,910.738l109.144,-109.144" style="fill:none;stroke:#2d3384;stroke-width:3.23px;"/><path d="M954.622,880.731l109.141,-109.14" style="fill:none;stroke:#2d3384;stroke-width:3.23px;"/><path d="M962.038,888.147l109.14,-109.141" style="fill:none;stroke:#2d3384;stroke-width:3.23px;"/><path d="M969.453,895.563l109.141,-109.141" style="fill:none;stroke:#2d3384;stroke-width:3.23px;"/><path d="M976.869,902.978l109.14,-109.14" style="fill:none;stroke:#2d3384;stroke-width:3.23px;"/><path d="M932.031,858.144l109.144,-109.144" style="fill:none;stroke:#2d3384;stroke-width:3.23px;"/><path d="M939.447,865.559l109.144,-109.143" style="fill:none;stroke:#2d3384;stroke-width:3.23px;"/><path d="M946.862,872.975l109.144,-109.144" style="fill:none;stroke:#2d3384;stroke-width:3.23px;"/><path d="M954.278,880.391l109.144,-109.144" style="fill:none;stroke:#2d3384;stroke-width:3.23px;"/><path d="M909.444,835.553l109.141,-109.14" style="fill:none;stroke:#2d3384;stroke-width:3.23px;"/><path d="M916.86,842.969l109.14,-109.141" style="fill:none;stroke:#2d3384;stroke-width:3.23px;"/><path d="M924.275,850.384l109.141,-109.14" style="fill:none;stroke:#2d3384;stroke-width:3.23px;"/><path d="M931.691,857.8l109.14,-109.141" style="fill:none;stroke:#2d3384;stroke-width:3.23px;"/><path d="M901.684,827.797l109.144,-109.144" style="fill:none;stroke:#2d3384;stroke-width:3.23px;"/><path d="M909.1,835.213l109.144,-109.144" style="fill:none;stroke:#2d3384;stroke-width:3.23px;"/><path d="M1086.35,794.178l109.144,-109.14" style="fill:none;stroke:#2d3384;stroke-width:3.23px;"/><path d="M1093.77,801.594l109.144,-109.141" style="fill:none;stroke:#2d3384;stroke-width:3.23px;"/><path d="M1063.76,771.591l109.143,-109.144" style="fill:none;stroke:#2d3384;stroke-width:3.23px;"/><path d="M1071.18,779.006l109.144,-109.143" style="fill:none;stroke:#2d3384;stroke-width:3.23px;"/><path d="M1078.59,786.422l109.144,-109.144" style="fill:none;stroke:#2d3384;stroke-width:3.23px;"/><path d="M1086.01,793.838l109.144,-109.144" style="fill:none;stroke:#2d3384;stroke-width:3.23px;"/><path d="M1041.17,749l109.144,-109.141" style="fill:none;stroke:#2d3384;stroke-width:3.23px;"/><path d="M1048.59,756.416l109.143,-109.141" style="fill:none;stroke:#2d3384;stroke-width:3.23px;"/><path d="M1056.01,763.831l109.144,-109.14" style="fill:none;stroke:#2d3384;stroke-width:3.23px;"/><path d="M1063.42,771.247l109.144,-109.141" style="fill:none;stroke:#2d3384;stroke-width:3.23px;"/><path d="M1018.59,726.413l109.143,-109.144" style="fill:none;stroke:#2d3384;stroke-width:3.23px;"/><path d="M1026,733.828l109.144,-109.144" style="fill:none;stroke:#2d3384;stroke-width:3.23px;"/><path d="M1033.42,741.244l109.144,-109.144" style="fill:none;stroke:#2d3384;stroke-width:3.23px;"/><path d="M1040.83,748.659l109.144,-109.143" style="fill:none;stroke:#2d3384;stroke-width:3.23px;"/><path d="M1010.83,718.653l109.144,-109.14" style="fill:none;stroke:#2d3384;stroke-width:3.23px;"/><path d="M1018.24,726.069l109.144,-109.141" style="fill:none;stroke:#2d3384;stroke-width:3.23px;"/><path d="M886.853,812.966l109.144,-109.144" style="fill:none;stroke:#2d3384;stroke-width:3.23px;"/><path d="M894.269,820.381l109.144,-109.143" style="fill:none;stroke:#2d3384;stroke-width:3.23px;"/><path d="M864.266,790.375l109.14,-109.141" style="fill:none;stroke:#2d3384;stroke-width:3.23px;"/><path d="M871.681,797.791l109.141,-109.141" style="fill:none;stroke:#2d3384;stroke-width:3.23px;"/><path d="M879.097,805.206l109.14,-109.14" style="fill:none;stroke:#2d3384;stroke-width:3.23px;"/><path d="M886.512,812.622l109.141,-109.141" style="fill:none;stroke:#2d3384;stroke-width:3.23px;"/><path d="M841.675,767.788l109.144,-109.144" style="fill:none;stroke:#2d3384;stroke-width:3.23px;"/><path d="M849.091,775.203l109.143,-109.144" style="fill:none;stroke:#2d3384;stroke-width:3.23px;"/><path d="M856.506,782.619l109.144,-109.144" style="fill:none;stroke:#2d3384;stroke-width:3.23px;"/><path d="M863.922,790.034l109.144,-109.143" style="fill:none;stroke:#2d3384;stroke-width:3.23px;"/><path d="M819.088,745.197l109.14,-109.141" style="fill:none;stroke:#2d3384;stroke-width:3.23px;"/><path d="M826.503,752.613l109.141,-109.141" style="fill:none;stroke:#2d3384;stroke-width:3.23px;"/><path d="M833.919,760.028l109.141,-109.14" style="fill:none;stroke:#2d3384;stroke-width:3.23px;"/><path d="M841.335,767.444l109.14,-109.141" style="fill:none;stroke:#2d3384;stroke-width:3.23px;"/><path d="M811.328,737.441l109.144,-109.144" style="fill:none;stroke:#2d3384;stroke-width:3.23px;"/><path d="M818.744,744.856l109.143,-109.143" style="fill:none;stroke:#2d3384;stroke-width:3.23px;"/><path d="M995.997,703.822l109.144,-109.141" style="fill:none;stroke:#2d3384;stroke-width:3.23px;"/><path d="M1003.41,711.238l109.143,-109.141" style="fill:none;stroke:#2d3384;stroke-width:3.23px;"/><path d="M973.406,681.234l109.144,-109.143" style="fill:none;stroke:#2d3384;stroke-width:3.23px;"/><path d="M980.822,688.65l109.144,-109.144" style="fill:none;stroke:#2d3384;stroke-width:3.23px;"/><path d="M988.237,696.066l109.144,-109.144" style="fill:none;stroke:#2d3384;stroke-width:3.23px;"/><path d="M995.653,703.481l109.144,-109.143" style="fill:none;stroke:#2d3384;stroke-width:3.23px;"/><path d="M950.819,658.644l109.144,-109.141" style="fill:none;stroke:#2d3384;stroke-width:3.23px;"/><path d="M958.234,666.059l109.144,-109.14" style="fill:none;stroke:#2d3384;stroke-width:3.23px;"/><path d="M965.65,673.475l109.144,-109.141" style="fill:none;stroke:#2d3384;stroke-width:3.23px;"/><path d="M973.066,680.891l109.143,-109.141" style="fill:none;stroke:#2d3384;stroke-width:3.23px;"/><path d="M928.228,636.056l109.144,-109.143" style="fill:none;stroke:#2d3384;stroke-width:3.23px;"/><path d="M935.644,643.472l109.144,-109.144" style="fill:none;stroke:#2d3384;stroke-width:3.23px;"/><path d="M943.06,650.888l109.143,-109.144" style="fill:none;stroke:#2d3384;stroke-width:3.23px;"/><path d="M950.475,658.303l109.144,-109.144" style="fill:none;stroke:#2d3384;stroke-width:3.23px;"/><path d="M920.472,628.297l109.144,-109.141" style="fill:none;stroke:#2d3384;stroke-width:3.23px;"/><path d="M927.887,635.713l109.144,-109.141" style="fill:none;stroke:#2d3384;stroke-width:3.23px;"/></g><path d="M1042.45,730.284c0,15.519 -8.406,29.01 -20.906,36.304l-42.25,0c-12.5,-7.294 -20.906,-20.785 -20.906,-36.304c0,-19.556 13.312,-35.981 31.375,-40.69l0,-42.144l21.312,0l0,42.144c18.063,4.709 31.375,21.134 31.375,40.69Z" style="fill:none;stroke:#2d3384;stroke-width:4.69px;"/><path d="M1042.45,730.284c0,15.519 -8.406,29.01 -20.906,36.304l-42.25,0c-12.5,-7.294 -20.906,-20.785 -20.906,-36.304c0,-19.556 13.312,-35.981 31.375,-40.69l0,-42.144l21.312,0l0,42.144c18.063,4.709 31.375,21.134 31.375,40.69Z" style="fill:none;stroke:#2d3384;stroke-width:4.69px;"/><rect x="481.903" y="4.059" width="160.141" height="24.203" style="fill:none;stroke:#2d3384;stroke-width:4.69px;"/><path d="M493.4,4.059l0,10.244" style="fill:none;stroke:#2d3384;stroke-width:4.69px;"/><path d="M507.11,4.059l0,10.244" style="fill:none;stroke:#2d3384;stroke-width:4.69px;"/><path d="M520.828,4.059l0,10.244" style="fill:none;stroke:#2d3384;stroke-width:4.69px;"/><path d="M534.547,4.059l0,10.244" style="fill:none;stroke:#2d3384;stroke-width:4.69px;"/><path d="M548.266,4.059l0,10.244" style="fill:none;stroke:#2d3384;stroke-width:4.69px;"/><path d="M561.985,4.059l0,10.244" style="fill:none;stroke:#2d3384;stroke-width:4.69px;"/><path d="M575.672,4.059l0,10.244" style="fill:none;stroke:#2d3384;stroke-width:4.69px;"/><path d="M589.391,4.059l0,10.244" style="fill:none;stroke:#2d3384;stroke-width:4.69px;"/><path d="M603.109,4.059l0,10.244" style="fill:none;stroke:#2d3384;stroke-width:4.69px;"/><path d="M616.828,4.059l0,10.244" style="fill:none;stroke:#2d3384;stroke-width:4.69px;"/><path d="M630.547,4.059l0,10.244" style="fill:none;stroke:#2d3384;stroke-width:4.69px;"/><path d="M817.735,77.1c0,25.522 -20.688,46.21 -46.219,46.21c-25.532,0 -46.219,-20.688 -46.219,-46.21c0,-25.522 20.687,-46.212 46.219,-46.212c25.531,0 46.219,20.69 46.219,46.212Z" style="fill:none;stroke:#2d3384;stroke-width:4.69px;"/><path d="M807.734,77.1c0,19.994 -16.218,36.206 -36.218,36.206c-20,0 -36.219,-16.212 -36.219,-36.206c0,-19.997 16.219,-36.206 36.219,-36.206c20,0 36.218,16.209 36.218,36.206Z" style="fill:none;stroke:#2d3384;stroke-width:4.69px;"/><path d="M771.516,122.419l0,22.615" style="fill:none;stroke:#2d3384;stroke-width:4.69px;"/><rect x="757.672" y="145.034" width="27.687" height="80.806" style="fill:none;stroke:#2d3384;stroke-width:4.69px;"/><g><clipPath id="_clip3"><rect x="757.672" y="154.169" width="27.687" height="56.922"/></clipPath><g clip-path="url(#_clip3)"><path d="M773.194,273.4l-2.284,-1.609l109.143,-76.882l2.282,1.607l-109.141,76.884Z" style="fill:#2d3384;fill-rule:nonzero;"/><path d="M780.606,278.622l-2.281,-1.606l109.144,-76.882l2.281,1.607l-109.144,76.881Z" style="fill:#2d3384;fill-rule:nonzero;"/><path d="M750.603,257.488l-2.281,-1.61l109.14,-76.881l2.282,1.606l-109.141,76.885Z" style="fill:#2d3384;fill-rule:nonzero;"/><path d="M758.019,262.71l-2.282,-1.607l109.141,-76.881l2.284,1.606l-109.143,76.882Z" style="fill:#2d3384;fill-rule:nonzero;"/><path d="M765.434,267.935l-2.281,-1.607l109.141,-76.884l2.281,1.609l-109.141,76.882Z" style="fill:#2d3384;fill-rule:nonzero;"/><path d="M772.85,273.159l-2.281,-1.609l109.14,-76.881l2.282,1.606l-109.141,76.884Z" style="fill:#2d3384;fill-rule:nonzero;"/><path d="M728.013,241.575l-2.282,-1.609l109.144,-76.882l2.281,1.61l-109.143,76.881Z" style="fill:#2d3384;fill-rule:nonzero;"/><path d="M735.428,246.797l-2.281,-1.606l109.144,-76.882l2.281,1.607l-109.144,76.881Z" style="fill:#2d3384;fill-rule:nonzero;"/><path d="M742.844,252.022l-2.281,-1.606l109.143,-76.885l2.282,1.61l-109.144,76.881Z" style="fill:#2d3384;fill-rule:nonzero;"/><path d="M750.259,257.247l-2.281,-1.609l109.144,-76.882l2.281,1.607l-109.144,76.884Z" style="fill:#2d3384;fill-rule:nonzero;"/><path d="M705.425,225.663l-2.281,-1.607l109.141,-76.884l2.281,1.609l-109.141,76.882Z" style="fill:#2d3384;fill-rule:nonzero;"/><path d="M712.841,230.888l-2.281,-1.61l109.14,-76.881l2.285,1.606l-109.144,76.885Z" style="fill:#2d3384;fill-rule:nonzero;"/><path d="M720.257,236.109l-2.282,-1.606l109.141,-76.884l2.284,1.609l-109.143,76.881Z" style="fill:#2d3384;fill-rule:nonzero;"/><path d="M727.672,241.334l-2.281,-1.609l109.14,-76.881l2.285,1.606l-109.144,76.884Z" style="fill:#2d3384;fill-rule:nonzero;"/><path d="M697.666,220.197l-2.282,-1.606l109.144,-76.881l2.281,1.606l-109.143,76.881Z" style="fill:#2d3384;fill-rule:nonzero;"/><path d="M705.081,225.422l-2.281,-1.609l109.144,-76.882l2.281,1.607l-109.144,76.884Z" style="fill:#2d3384;fill-rule:nonzero;"/><path d="M682.837,209.75l-2.284,-1.606l109.144,-76.885l2.281,1.61l-109.141,76.881Z" style="fill:#2d3384;fill-rule:nonzero;"/><path d="M690.25,214.975l-2.281,-1.609l109.144,-76.882l2.281,1.607l-109.144,76.884Z" style="fill:#2d3384;fill-rule:nonzero;"/><path d="M660.247,193.838l-2.281,-1.607l109.14,-76.884l2.282,1.609l-109.141,76.882Z" style="fill:#2d3384;fill-rule:nonzero;"/><path d="M667.663,199.063l-2.282,-1.61l109.141,-76.881l2.281,1.606l-109.14,76.885Z" style="fill:#2d3384;fill-rule:nonzero;"/><path d="M675.078,204.284l-2.281,-1.606l109.14,-76.881l2.282,1.606l-109.141,76.881Z" style="fill:#2d3384;fill-rule:nonzero;"/><path d="M682.494,209.509l-2.282,-1.606l109.141,-76.884l2.281,1.609l-109.14,76.881Z" style="fill:#2d3384;fill-rule:nonzero;"/><path d="M652.488,188.372l-2.282,-1.606l109.144,-76.882l2.281,1.607l-109.143,76.881Z" style="fill:#2d3384;fill-rule:nonzero;"/><path d="M659.903,193.597l-2.281,-1.606l109.144,-76.885l2.281,1.61l-109.144,76.881Z" style="fill:#2d3384;fill-rule:nonzero;"/></g></g><rect x="757.672" y="154.169" width="27.687" height="56.922" style="fill:none;stroke:#2d3384;stroke-width:4.69px;"/><path d="M757.672,211.175l27.687,0" style="fill:none;stroke:#2d3384;stroke-width:4.69px;"/><path d="M757.672,154.169l27.687,0" style="fill:none;stroke:#2d3384;stroke-width:4.69px;"/><path d="M723.141,36.409l-55.875,0l0,-27.228l55.875,0l0,27.228Z" style="fill:none;stroke:#2d3384;stroke-width:4.69px;"/><g><clipPath id="_clip4"><path d="M723.891,36.409l-27.938,0l0,-27.228l27.938,0l0,27.228Z"/></clipPath><g clip-path="url(#_clip4)"><path d="M705.425,71.897l-2.281,-1.606l109.141,-76.882l2.281,1.607l-109.141,76.881Z" style="fill:#2d3384;fill-rule:nonzero;"/><path d="M712.841,77.122l-2.281,-1.606l109.14,-76.885l2.285,1.61l-109.144,76.881Z" style="fill:#2d3384;fill-rule:nonzero;"/><path d="M720.257,82.347l-2.282,-1.609l109.141,-76.882l2.284,1.607l-109.143,76.884Z" style="fill:#2d3384;fill-rule:nonzero;"/><path d="M697.666,66.434l-2.282,-1.609l109.144,-76.881l2.281,1.606l-109.143,76.884Z" style="fill:#2d3384;fill-rule:nonzero;"/><path d="M705.081,71.656l-2.281,-1.606l109.144,-76.881l2.281,1.606l-109.144,76.881Z" style="fill:#2d3384;fill-rule:nonzero;"/><path d="M682.837,55.984l-2.284,-1.606l109.144,-76.881l2.281,1.606l-109.141,76.881Z" style="fill:#2d3384;fill-rule:nonzero;"/><path d="M690.25,61.209l-2.281,-1.606l109.144,-76.884l2.281,1.609l-109.144,76.881Z" style="fill:#2d3384;fill-rule:nonzero;"/><path d="M660.247,40.075l-2.281,-1.609l109.14,-76.882l2.282,1.607l-109.141,76.884Z" style="fill:#2d3384;fill-rule:nonzero;"/><path d="M667.663,45.297l-2.282,-1.606l109.141,-76.882l2.281,1.607l-109.14,76.881Z" style="fill:#2d3384;fill-rule:nonzero;"/><path d="M675.078,50.522l-2.281,-1.609l109.14,-76.882l2.282,1.607l-109.141,76.884Z" style="fill:#2d3384;fill-rule:nonzero;"/><path d="M682.494,55.744l-2.282,-1.606l109.141,-76.882l2.281,1.607l-109.14,76.881Z" style="fill:#2d3384;fill-rule:nonzero;"/><path d="M637.656,24.163l-2.281,-1.61l109.144,-76.881l2.281,1.606l-109.144,76.885Z" style="fill:#2d3384;fill-rule:nonzero;"/><path d="M645.072,29.385l-2.281,-1.607l109.144,-76.881l2.281,1.606l-109.144,76.882Z" style="fill:#2d3384;fill-rule:nonzero;"/><path d="M652.488,34.609l-2.282,-1.606l109.144,-76.884l2.281,1.609l-109.143,76.881Z" style="fill:#2d3384;fill-rule:nonzero;"/><path d="M659.903,39.831l-2.281,-1.606l109.144,-76.881l2.281,1.606l-109.144,76.881Z" style="fill:#2d3384;fill-rule:nonzero;"/><path d="M622.484,13.472l-2.281,-1.606l109.141,-76.882l2.284,1.607l-109.144,76.881Z" style="fill:#2d3384;fill-rule:nonzero;"/><path d="M629.9,18.697l-2.281,-1.606l109.14,-76.885l2.285,1.61l-109.144,76.881Z" style="fill:#2d3384;fill-rule:nonzero;"/><path d="M637.316,23.919l-2.282,-1.606l109.141,-76.882l2.284,1.607l-109.143,76.881Z" style="fill:#2d3384;fill-rule:nonzero;"/></g></g><path d="M723.891,36.409l-27.938,0l0,-27.228l27.938,0l0,27.228Z" style="fill:none;stroke:#2d3384;stroke-width:4.69px;"/><path d="M695.203,9.181l0,27.228" style="fill:none;stroke:#2d3384;stroke-width:4.69px;"/><path d="M203.153,180.334l-55.865,0l0,-27.228l55.865,0l0,27.228Z" style="fill:none;stroke:#2d3384;stroke-width:4.69px;"/><g><clipPath id="_clip5"><path d="M203.906,180.334l-27.934,0l0,-27.228l27.934,0l0,27.228Z"/></clipPath><g clip-path="url(#_clip5)"><path d="M193.059,221.159l-2.281,-1.606l109.141,-76.884l2.284,1.609l-109.144,76.881Z" style="fill:#2d3384;fill-rule:nonzero;"/><path d="M200.475,226.384l-2.281,-1.609l109.14,-76.881l2.282,1.606l-109.141,76.884Z" style="fill:#2d3384;fill-rule:nonzero;"/><path d="M170.469,205.247l-2.281,-1.606l109.143,-76.885l2.282,1.61l-109.144,76.881Z" style="fill:#2d3384;fill-rule:nonzero;"/><path d="M177.884,210.472l-2.281,-1.609l109.144,-76.882l2.281,1.607l-109.144,76.884Z" style="fill:#2d3384;fill-rule:nonzero;"/><path d="M185.3,215.694l-2.281,-1.606l109.144,-76.882l2.281,1.607l-109.144,76.881Z" style="fill:#2d3384;fill-rule:nonzero;"/><path d="M192.716,220.919l-2.282,-1.606l109.144,-76.885l2.281,1.61l-109.143,76.881Z" style="fill:#2d3384;fill-rule:nonzero;"/><path d="M147.881,189.334l-2.281,-1.606l109.141,-76.881l2.281,1.606l-109.141,76.881Z" style="fill:#2d3384;fill-rule:nonzero;"/><path d="M155.297,194.559l-2.281,-1.609l109.14,-76.881l2.282,1.606l-109.141,76.884Z" style="fill:#2d3384;fill-rule:nonzero;"/><path d="M162.713,199.781l-2.282,-1.606l109.141,-76.881l2.281,1.606l-109.14,76.881Z" style="fill:#2d3384;fill-rule:nonzero;"/><path d="M170.128,205.006l-2.281,-1.606l109.141,-76.884l2.281,1.609l-109.141,76.881Z" style="fill:#2d3384;fill-rule:nonzero;"/><path d="M140.122,183.869l-2.281,-1.606l109.143,-76.882l2.282,1.607l-109.144,76.881Z" style="fill:#2d3384;fill-rule:nonzero;"/><path d="M147.538,189.094l-2.282,-1.606l109.144,-76.885l2.281,1.61l-109.143,76.881Z" style="fill:#2d3384;fill-rule:nonzero;"/></g></g><path d="M203.906,180.334l-27.934,0l0,-27.228l27.934,0l0,27.228Z" style="fill:none;stroke:#2d3384;stroke-width:4.69px;"/><path d="M175.219,153.106l0,27.228" style="fill:none;stroke:#2d3384;stroke-width:4.69px;"/><path d="M941.328,275.5l-113.719,0l0,-153.081l88.719,0l25,21.175l0,131.906Z" style="fill:none;stroke:#2d3384;stroke-width:4.69px;"/><path d="M916.328,122.419l0,20.772l25,0.403" style="fill:none;stroke:#2d3384;stroke-width:4.69px;"/><path d="M849.891,169.678l70.718,0" style="fill:none;stroke:#2d3384;stroke-width:4.69px;"/><path d="M849.891,186.938l70.718,0" style="fill:none;stroke:#2d3384;stroke-width:4.69px;"/><path d="M849.891,204.194l70.718,0" style="fill:none;stroke:#2d3384;stroke-width:4.69px;"/><path d="M849.891,221.45l70.718,0" style="fill:none;stroke:#2d3384;stroke-width:4.69px;"/><path d="M849.891,238.709l70.718,0" style="fill:none;stroke:#2d3384;stroke-width:4.69px;"/><path d="M1079.89,366.75c0,39.988 -32.407,72.403 -72.406,72.403c-39.969,0 -72.376,-32.415 -72.376,-72.403c0,-39.987 32.407,-72.403 72.376,-72.403c39.999,0 72.406,32.416 72.406,72.403Z" style="fill:none;stroke:#2d3384;stroke-width:4.69px;"/><path d="M1014.58,461.481c49.094,-3.631 87.907,-44.731 87.907,-94.731c0,-52.378 -42.594,-94.99 -95,-94.99l0,22.587" style="fill:none;stroke:#2d3384;stroke-width:4.69px;"/><path d="M1079.89,366.75c0,39.988 -32.407,72.403 -72.406,72.403c-39.969,0 -72.376,-32.415 -72.376,-72.403c0,-39.987 32.407,-72.403 72.376,-72.403c39.999,0 72.406,32.416 72.406,72.403Z" style="fill:none;stroke:#2d3384;stroke-width:4.69px;"/><path d="M1079.89,364.794c0,16.453 -32.407,29.79 -72.406,29.79c-39.969,0 -72.376,-13.337 -72.376,-29.79c0,-16.453 32.407,-29.791 72.376,-29.791c39.999,0 72.406,13.338 72.406,29.791Z" style="fill:none;stroke:#2d3384;stroke-width:4.69px;"/><path d="M1050.05,366.75c0,39.988 -19.062,72.403 -42.562,72.403c-23.469,0 -42.532,-32.415 -42.532,-72.403c0,-39.987 19.063,-72.403 42.532,-72.403c23.5,0 42.562,32.416 42.562,72.403Z" style="fill:none;stroke:#2d3384;stroke-width:4.69px;"/><rect x="1000.42" y="438.791" width="14.156" height="46.85" style="fill:none;stroke:#2d3384;stroke-width:4.69px;"/><rect x="972.391" y="485.641" width="70.187" height="16.941" style="fill:none;stroke:#2d3384;stroke-width:4.69px;"/><rect x="175.597" y="201.572" width="102.45" height="115.263" style="fill:none;stroke:#2d3384;stroke-width:4.69px;"/><rect x="187.391" y="212.772" width="77.753" height="33.275" style="fill:none;stroke:#2d3384;stroke-width:4.69px;"/><rect x="256.066" y="275.291" width="10.488" height="27.628" style="fill:none;stroke:#2d3384;stroke-width:4.69px;"/><rect x="187.391" y="257.744" width="10.488" height="10.488" style="fill:none;stroke:#2d3384;stroke-width:4.69px;"/><rect x="210.281" y="257.744" width="10.488" height="10.488" style="fill:none;stroke:#2d3384;stroke-width:4.69px;"/><rect x="233.175" y="257.744" width="10.488" height="10.488" style="fill:none;stroke:#2d3384;stroke-width:4.69px;"/><rect x="187.391" y="292.431" width="10.488" height="10.487" style="fill:none;stroke:#2d3384;stroke-width:4.69px;"/><rect x="210.281" y="292.431" width="10.488" height="10.487" style="fill:none;stroke:#2d3384;stroke-width:4.69px;"/><rect x="233.175" y="292.431" width="10.488" height="10.487" style="fill:none;stroke:#2d3384;stroke-width:4.69px;"/><rect x="187.391" y="275.091" width="10.488" height="10.484" style="fill:none;stroke:#2d3384;stroke-width:4.69px;"/><rect x="210.281" y="275.091" width="10.488" height="10.484" style="fill:none;stroke:#2d3384;stroke-width:4.69px;"/><rect x="233.175" y="275.091" width="10.488" height="10.484" style="fill:none;stroke:#2d3384;stroke-width:4.69px;"/><rect x="256.066" y="257.744" width="10.488" height="10.488" style="fill:none;stroke:#2d3384;stroke-width:4.69px;"/><path d="M332.869,252.875c0,5.153 -4.175,9.328 -9.328,9.328c-5.15,0 -9.328,-4.175 -9.328,-9.328c0,-5.15 4.178,-9.328 9.328,-9.328c5.153,0 9.328,4.178 9.328,9.328Z" style="fill:none;stroke:#2d3384;stroke-width:4.69px;"/><path d="M351.528,209.475c0,5.15 -4.178,9.328 -9.328,9.328c-5.153,0 -9.331,-4.178 -9.331,-9.328c0,-5.153 4.178,-9.328 9.331,-9.328c5.15,0 9.328,4.175 9.328,9.328Z" style="fill:none;stroke:#2d3384;stroke-width:4.69px;"/><path d="M380.628,233.819c0,5.153 -4.178,9.331 -9.331,9.331c-5.153,0 -9.328,-4.178 -9.328,-9.331c0,-5.15 4.175,-9.328 9.328,-9.328c5.153,0 9.331,4.178 9.331,9.328Z" style="fill:none;stroke:#2d3384;stroke-width:4.69px;"/><path d="M347.659,217.038l14.31,15.431l-30.138,16.144" style="fill:none;stroke:#2d3384;stroke-width:4.69px;stroke-linecap:round;stroke-linejoin:round;"/><path d="M816.922,904.378c-5.188,2.51 -11.438,0.338 -13.938,-4.85c-2.531,-5.187 -0.343,-11.425 4.844,-13.937c5.188,-2.513 11.438,-0.341 13.938,4.85c2.5,5.187 0.343,11.428 -4.844,13.937Z" style="fill:none;stroke:#2d3384;stroke-width:4.69px;"/><path d="M869.703,902.019c-5.187,2.509 -11.437,0.34 -13.937,-4.847c-2.5,-5.188 -0.344,-11.428 4.844,-13.941c5.187,-2.509 11.437,-0.337 13.937,4.85c2.531,5.188 0.344,11.428 -4.844,13.938Z" style="fill:none;stroke:#2d3384;stroke-width:4.69px;"/><path d="M859.359,943.181c-5.187,2.507 -11.406,0.338 -13.937,-4.85c-2.5,-5.187 -0.344,-11.428 4.844,-13.937c5.187,-2.513 11.437,-0.341 13.969,4.847c2.499,5.187 0.312,11.428 -4.876,13.94Z" style="fill:none;stroke:#2d3384;stroke-width:4.69px;"/><path d="M860.203,901.806l-8.562,21.928l-30.938,-22.478" style="fill:none;stroke:#2d3384;stroke-width:4.69px;stroke-linecap:round;stroke-linejoin:round;"/><path d="M128.125,341.15l-19.265,0c-11.722,0 -21.226,-9.5 -21.226,-21.222l0,-44.503c0,-11.722 9.504,-21.225 21.226,-21.225l19.265,0c11.722,0 21.225,9.503 21.225,21.225l0,44.503c0,11.722 -9.503,21.222 -21.225,21.222Z" style="fill:none;stroke:#2d3384;stroke-width:4.69px;"/><rect x="115.4" y="254.2" width="6.184" height="38.953" style="fill:none;stroke:#2d3384;stroke-width:4.69px;"/><path d="M1116.8,749.347l-19.25,0c-11.719,0 -21.219,-9.503 -21.219,-21.222l0,-44.503c0,-11.722 9.5,-21.225 21.219,-21.225l19.25,0c11.719,0 21.219,9.503 21.219,21.225l0,44.503c0,11.719 -9.5,21.222 -21.219,21.222Z" style="fill:none;stroke:#2d3384;stroke-width:4.69px;"/><rect x="1104.08" y="662.397" width="6.187" height="38.95" style="fill:none;stroke:#2d3384;stroke-width:4.69px;"/><rect x="30.869" y="397.978" width="169.062" height="109.981" style="fill:none;stroke:#2d3384;stroke-width:4.69px;"/><g><clipPath id="_clip6"><rect x="30.869" y="443.96" width="169.062" height="64"/></clipPath><g clip-path="url(#_clip6)"><path d="M113.45,769.894l111.028,-107.222" style="fill:none;stroke:#2d3384;stroke-width:3.23px;"/><path d="M120.734,777.438l111.032,-107.222" style="fill:none;stroke:#2d3384;stroke-width:3.23px;"/><path d="M91.256,746.913l111.032,-107.219" style="fill:none;stroke:#2d3384;stroke-width:3.23px;"/><path d="M98.544,754.456l111.028,-107.218" style="fill:none;stroke:#2d3384;stroke-width:3.23px;"/><path d="M105.828,762.003l111.032,-107.222" style="fill:none;stroke:#2d3384;stroke-width:3.23px;"/><path d="M113.113,769.547l111.031,-107.222" style="fill:none;stroke:#2d3384;stroke-width:3.23px;"/><path d="M69.066,723.934l111.031,-107.221" style="fill:none;stroke:#2d3384;stroke-width:3.23px;"/><path d="M76.35,731.478l111.031,-107.222" style="fill:none;stroke:#2d3384;stroke-width:3.23px;"/><path d="M83.638,739.022l111.028,-107.222" style="fill:none;stroke:#2d3384;stroke-width:3.23px;"/><path d="M90.922,746.566l111.031,-107.222" style="fill:none;stroke:#2d3384;stroke-width:3.23px;"/><path d="M46.875,700.953l111.031,-107.219" style="fill:none;stroke:#2d3384;stroke-width:3.23px;"/><path d="M54.159,708.497l111.032,-107.219" style="fill:none;stroke:#2d3384;stroke-width:3.23px;"/><path d="M61.444,716.041l111.031,-107.219" style="fill:none;stroke:#2d3384;stroke-width:3.23px;"/><path d="M68.731,723.584l111.028,-107.218" style="fill:none;stroke:#2d3384;stroke-width:3.23px;"/><path d="M39.253,693.063l111.031,-107.222" style="fill:none;stroke:#2d3384;stroke-width:3.23px;"/><path d="M46.537,700.606l111.032,-107.222" style="fill:none;stroke:#2d3384;stroke-width:3.23px;"/><path d="M224.478,662.672l111.031,-107.222" style="fill:none;stroke:#2d3384;stroke-width:3.23px;"/><path d="M231.766,670.216l111.031,-107.219" style="fill:none;stroke:#2d3384;stroke-width:3.23px;"/><path d="M202.288,639.694l111.031,-107.222" style="fill:none;stroke:#2d3384;stroke-width:3.23px;"/><path d="M209.572,647.238l111.031,-107.222" style="fill:none;stroke:#2d3384;stroke-width:3.23px;"/><path d="M216.86,654.781l111.028,-107.222" style="fill:none;stroke:#2d3384;stroke-width:3.23px;"/><path d="M224.144,662.325l111.031,-107.222" style="fill:none;stroke:#2d3384;stroke-width:3.23px;"/><path d="M180.097,616.713l111.031,-107.222" style="fill:none;stroke:#2d3384;stroke-width:3.23px;"/><path d="M187.381,624.256l111.032,-107.222" style="fill:none;stroke:#2d3384;stroke-width:3.23px;"/><path d="M194.666,631.8l111.031,-107.222" style="fill:none;stroke:#2d3384;stroke-width:3.23px;"/><path d="M201.953,639.344l111.028,-107.222" style="fill:none;stroke:#2d3384;stroke-width:3.23px;"/><path d="M157.906,593.734l111.032,-107.221" style="fill:none;stroke:#2d3384;stroke-width:3.23px;"/><path d="M165.191,601.278l111.031,-107.222" style="fill:none;stroke:#2d3384;stroke-width:3.23px;"/><path d="M172.475,608.822l111.031,-107.222" style="fill:none;stroke:#2d3384;stroke-width:3.23px;"/><path d="M179.759,616.366l111.032,-107.222" style="fill:none;stroke:#2d3384;stroke-width:3.23px;"/><path d="M150.284,585.841l111.032,-107.222" style="fill:none;stroke:#2d3384;stroke-width:3.23px;"/><path d="M157.569,593.384l111.031,-107.221" style="fill:none;stroke:#2d3384;stroke-width:3.23px;"/><path d="M24.684,677.975l111.029,-107.222" style="fill:none;stroke:#2d3384;stroke-width:3.23px;"/><path d="M31.969,685.519l111.031,-107.222" style="fill:none;stroke:#2d3384;stroke-width:3.23px;"/><path d="M2.491,654.994l111.031,-107.222" style="fill:none;stroke:#2d3384;stroke-width:3.23px;"/><path d="M9.778,662.538l111.028,-107.222" style="fill:none;stroke:#2d3384;stroke-width:3.23px;"/><path d="M17.063,670.081l111.031,-107.218" style="fill:none;stroke:#2d3384;stroke-width:3.23px;"/><path d="M24.347,677.625l111.031,-107.219" style="fill:none;stroke:#2d3384;stroke-width:3.23px;"/><path d="M-19.7,632.016l111.031,-107.222" style="fill:none;stroke:#2d3384;stroke-width:3.23px;"/><path d="M-12.416,639.559l111.032,-107.221" style="fill:none;stroke:#2d3384;stroke-width:3.23px;"/><path d="M-5.131,647.103l111.031,-107.222" style="fill:none;stroke:#2d3384;stroke-width:3.23px;"/><path d="M2.156,654.647l111.031,-107.222" style="fill:none;stroke:#2d3384;stroke-width:3.23px;"/><path d="M-41.891,609.034l111.032,-107.221" style="fill:none;stroke:#2d3384;stroke-width:3.23px;"/><path d="M-34.606,616.578l111.031,-107.222" style="fill:none;stroke:#2d3384;stroke-width:3.23px;"/><path d="M-27.322,624.122l111.031,-107.222" style="fill:none;stroke:#2d3384;stroke-width:3.23px;"/><path d="M-20.037,631.666l111.031,-107.222" style="fill:none;stroke:#2d3384;stroke-width:3.23px;"/><path d="M-49.512,601.144l111.031,-107.222" style="fill:none;stroke:#2d3384;stroke-width:3.23px;"/><path d="M-42.228,608.688l111.031,-107.222" style="fill:none;stroke:#2d3384;stroke-width:3.23px;"/><path d="M135.713,570.753l111.031,-107.222" style="fill:none;stroke:#2d3384;stroke-width:3.23px;"/><path d="M143,578.297l111.031,-107.222" style="fill:none;stroke:#2d3384;stroke-width:3.23px;"/><path d="M113.522,547.772l111.031,-107.219" style="fill:none;stroke:#2d3384;stroke-width:3.23px;"/><path d="M120.806,555.316l111.032,-107.219" style="fill:none;stroke:#2d3384;stroke-width:3.23px;"/><path d="M128.094,562.863l111.028,-107.222" style="fill:none;stroke:#2d3384;stroke-width:3.23px;"/><path d="M135.378,570.406l111.032,-107.222" style="fill:none;stroke:#2d3384;stroke-width:3.23px;"/><path d="M91.331,524.794l111.032,-107.222" style="fill:none;stroke:#2d3384;stroke-width:3.23px;"/><path d="M98.616,532.338l111.031,-107.222" style="fill:none;stroke:#2d3384;stroke-width:3.23px;"/><path d="M105.9,539.881l111.031,-107.222" style="fill:none;stroke:#2d3384;stroke-width:3.23px;"/><path d="M113.187,547.425l111.029,-107.222" style="fill:none;stroke:#2d3384;stroke-width:3.23px;"/><path d="M69.141,501.813l111.031,-107.219" style="fill:none;stroke:#2d3384;stroke-width:3.23px;"/><path d="M76.425,509.356l111.031,-107.218" style="fill:none;stroke:#2d3384;stroke-width:3.23px;"/><path d="M83.709,516.9l111.032,-107.219" style="fill:none;stroke:#2d3384;stroke-width:3.23px;"/><path d="M90.994,524.444l111.031,-107.219" style="fill:none;stroke:#2d3384;stroke-width:3.23px;"/><path d="M61.519,493.922l111.031,-107.222" style="fill:none;stroke:#2d3384;stroke-width:3.23px;"/><path d="M68.803,501.466l111.031,-107.222" style="fill:none;stroke:#2d3384;stroke-width:3.23px;"/><path d="M-64.081,586.056l111.028,-107.222" style="fill:none;stroke:#2d3384;stroke-width:3.23px;"/><path d="M-56.797,593.6l111.031,-107.222" style="fill:none;stroke:#2d3384;stroke-width:3.23px;"/><path d="M-86.275,563.075l111.031,-107.222" style="fill:none;stroke:#2d3384;stroke-width:3.23px;"/><path d="M-78.987,570.619l111.028,-107.222" style="fill:none;stroke:#2d3384;stroke-width:3.23px;"/><path d="M-71.703,578.163l111.031,-107.222" style="fill:none;stroke:#2d3384;stroke-width:3.23px;"/><path d="M-64.419,585.706l111.032,-107.222" style="fill:none;stroke:#2d3384;stroke-width:3.23px;"/><path d="M-108.465,540.094l111.031,-107.219" style="fill:none;stroke:#2d3384;stroke-width:3.23px;"/><path d="M-101.181,547.638l111.031,-107.219" style="fill:none;stroke:#2d3384;stroke-width:3.23px;"/><path d="M-93.897,555.181l111.031,-107.218" style="fill:none;stroke:#2d3384;stroke-width:3.23px;"/><path d="M-86.609,562.728l111.031,-107.222" style="fill:none;stroke:#2d3384;stroke-width:3.23px;"/><path d="M-108.803,539.747l111.031,-107.222" style="fill:none;stroke:#2d3384;stroke-width:3.23px;"/><path d="M46.947,478.834l111.031,-107.221" style="fill:none;stroke:#2d3384;stroke-width:3.23px;"/><path d="M54.234,486.378l111.032,-107.222" style="fill:none;stroke:#2d3384;stroke-width:3.23px;"/><path d="M24.756,455.853l111.031,-107.222" style="fill:none;stroke:#2d3384;stroke-width:3.23px;"/><path d="M32.041,463.397l111.031,-107.222" style="fill:none;stroke:#2d3384;stroke-width:3.23px;"/><path d="M39.328,470.941l111.028,-107.219" style="fill:none;stroke:#2d3384;stroke-width:3.23px;"/><path d="M46.613,478.484l111.031,-107.218" style="fill:none;stroke:#2d3384;stroke-width:3.23px;"/><path d="M2.566,432.875l111.031,-107.222" style="fill:none;stroke:#2d3384;stroke-width:3.23px;"/><path d="M9.85,440.419l111.031,-107.222" style="fill:none;stroke:#2d3384;stroke-width:3.23px;"/><path d="M17.134,447.963l111.032,-107.222" style="fill:none;stroke:#2d3384;stroke-width:3.23px;"/><path d="M24.422,455.506l111.028,-107.222" style="fill:none;stroke:#2d3384;stroke-width:3.23px;"/><path d="M-19.625,409.894l111.031,-107.222" style="fill:none;stroke:#2d3384;stroke-width:3.23px;"/><path d="M-12.34,417.438l111.031,-107.222" style="fill:none;stroke:#2d3384;stroke-width:3.23px;"/><path d="M-5.056,424.981l111.031,-107.221" style="fill:none;stroke:#2d3384;stroke-width:3.23px;"/><path d="M2.228,432.525l111.031,-107.222" style="fill:none;stroke:#2d3384;stroke-width:3.23px;"/><path d="M-27.247,402.003l111.031,-107.222" style="fill:none;stroke:#2d3384;stroke-width:3.23px;"/><path d="M-19.962,409.547l111.031,-107.222" style="fill:none;stroke:#2d3384;stroke-width:3.23px;"/></g></g><rect x="30.869" y="443.96" width="169.062" height="64" style="fill:none;stroke:#2d3384;stroke-width:4.69px;"/><path d="M30.869,443.96l169.062,0" style="fill:none;stroke:#2d3384;stroke-width:4.69px;"/><rect x="94.275" y="433.878" width="42.25" height="22.987" style="fill:#fff;fill-rule:nonzero;"/><rect x="94.275" y="433.878" width="42.25" height="22.987" style="fill:none;stroke:#2d3384;stroke-width:4.69px;"/><path d="M67.603,397.978l0,-25.009l95.594,0l0,25.009" style="fill:none;stroke:#2d3384;stroke-width:4.69px;"/><path d="M735.703,204.194c0,5.737 -4.656,10.39 -10.406,10.39c-5.719,0 -10.375,-4.653 -10.375,-10.39c0,-5.738 4.656,-10.391 10.375,-10.391c5.75,0 10.406,4.653 10.406,10.391Z" style="fill:none;stroke:#2d3384;stroke-width:4.69px;"/><path d="M342.225,67.247c0,5.737 -4.656,10.391 -10.394,10.391c-5.74,0 -10.39,-4.654 -10.39,-10.391c0,-5.741 4.65,-10.391 10.39,-10.391c5.738,0 10.394,4.65 10.394,10.391Z" style="fill:none;stroke:#2d3384;stroke-width:4.69px;"/><path d="M248.81,171.538c0,5.74 -4.654,10.39 -10.391,10.39c-5.741,0 -10.391,-4.65 -10.391,-10.39c0,-5.738 4.65,-10.391 10.391,-10.391c5.737,0 10.391,4.653 10.391,10.391Z" style="fill:none;stroke:#2d3384;stroke-width:4.69px;"/><path d="M233.175,392.147c0,3.219 -2.613,5.831 -5.831,5.831c-3.219,0 -5.832,-2.612 -5.832,-5.831c0,-3.222 2.613,-5.831 5.832,-5.831c3.218,0 5.831,2.609 5.831,5.831Z" style="fill:none;stroke:#2d3384;stroke-width:4.69px;"/><path d="M65.541,711.703c0,3.222 -2.61,5.835 -5.829,5.835c-3.221,0 -5.831,-2.613 -5.831,-5.835c0,-3.219 2.61,-5.831 5.831,-5.831c3.219,0 5.829,2.612 5.829,5.831Z" style="fill:none;stroke:#2d3384;stroke-width:4.69px;"/><path d="M247.272,1032.45c0,3.219 -2.612,5.831 -5.831,5.831c-3.225,0 -5.835,-2.612 -5.835,-5.831c0,-3.219 2.61,-5.831 5.835,-5.831c3.219,0 5.831,2.612 5.831,5.831Z" style="fill:none;stroke:#2d3384;stroke-width:4.69px;"/><path d="M168.875,961.447c0,3.225 -2.612,5.834 -5.831,5.834c-3.225,0 -5.835,-2.609 -5.835,-5.834c0,-3.219 2.61,-5.828 5.835,-5.828c3.219,0 5.831,2.609 5.831,5.828Z" style="fill:none;stroke:#2d3384;stroke-width:4.69px;"/><path d="M333.228,901.203c0,3.219 -2.609,5.828 -5.834,5.828c-3.219,0 -5.831,-2.609 -5.831,-5.828c0,-3.222 2.612,-5.831 5.831,-5.831c3.225,0 5.834,2.609 5.834,5.831Z" style="fill:none;stroke:#2d3384;stroke-width:4.69px;"/><path d="M1054.14,636.491c0,3.222 -2.625,5.831 -5.844,5.831c-3.219,0 -5.844,-2.609 -5.844,-5.831c0,-3.219 2.625,-5.828 5.844,-5.828c3.219,0 5.844,2.609 5.844,5.828Z" style="fill:none;stroke:#2d3384;stroke-width:4.69px;"/><path d="M658.172,1131.81c0,3.218 -2.594,5.831 -5.844,5.831c-3.219,0 -5.812,-2.613 -5.812,-5.831c0,-3.219 2.593,-5.832 5.812,-5.832c3.25,0 5.844,2.613 5.844,5.832Z" style="fill:none;stroke:#2d3384;stroke-width:4.69px;"/><path d="M718.359,1035.47c0,3.219 -2.624,5.831 -5.843,5.831c-3.219,0 -5.813,-2.612 -5.813,-5.831c0,-3.219 2.594,-5.831 5.813,-5.831c3.219,0 5.843,2.612 5.843,5.831Z" style="fill:none;stroke:#2d3384;stroke-width:4.69px;"/><path d="M1121.92,768.569c0,3.219 -2.594,5.831 -5.812,5.831c-3.219,0 -5.844,-2.612 -5.844,-5.831c0,-3.225 2.625,-5.835 5.844,-5.835c3.218,0 5.812,2.61 5.812,5.835Z" style="fill:none;stroke:#2d3384;stroke-width:4.69px;"/><path d="M436.191,939.216c0,3.222 -2.61,5.831 -5.832,5.831c-3.221,0 -5.831,-2.609 -5.831,-5.831c0,-3.219 2.61,-5.828 5.831,-5.828c3.222,0 5.832,2.609 5.832,5.828Z" style="fill:none;stroke:#2d3384;stroke-width:4.69px;"/><path d="M977.047,994.522c0,3.222 -2.594,5.831 -5.812,5.831c-3.219,0 -5.844,-2.609 -5.844,-5.831c0,-3.219 2.625,-5.831 5.844,-5.831c3.218,0 5.812,2.612 5.812,5.831Z" style="fill:none;stroke:#2d3384;stroke-width:4.69px;"/><path d="M15.719,513.791c0,3.222 -2.61,5.831 -5.828,5.831c-3.222,0 -5.832,-2.609 -5.832,-5.831c0,-3.219 2.61,-5.832 5.832,-5.832c3.218,0 5.828,2.613 5.828,5.832Z" style="fill:none;stroke:#2d3384;stroke-width:4.69px;"/><path d="M1067.33,254.931c0,3.222 -2.594,5.835 -5.812,5.835c-3.219,0 -5.844,-2.613 -5.844,-5.835c0,-3.218 2.625,-5.831 5.844,-5.831c3.218,0 5.812,2.613 5.812,5.831Z" style="fill:none;stroke:#2d3384;stroke-width:4.69px;"/><path d="M968.203,455.647c0,3.222 -2.594,5.834 -5.812,5.834c-3.219,0 -5.844,-2.612 -5.844,-5.834c0,-3.219 2.625,-5.831 5.844,-5.831c3.218,0 5.812,2.612 5.812,5.831Z" style="fill:none;stroke:#2d3384;stroke-width:4.69px;"/><path d="M1085.73,513.444c0,3.222 -2.625,5.834 -5.843,5.834c-3.219,0 -5.813,-2.612 -5.813,-5.834c0,-3.219 2.594,-5.831 5.813,-5.831c3.218,0 5.843,2.612 5.843,5.831Z" style="fill:none;stroke:#2d3384;stroke-width:4.69px;"/><path d="M902.234,88.028c0,3.222 -2.625,5.831 -5.843,5.831c-3.219,0 -5.813,-2.609 -5.813,-5.831c0,-3.219 2.594,-5.831 5.813,-5.831c3.218,0 5.843,2.612 5.843,5.831Z" style="fill:none;stroke:#2d3384;stroke-width:4.69px;"/><path d="M807.734,246.047c0,3.222 -2.625,5.831 -5.843,5.831c-3.219,0 -5.844,-2.609 -5.844,-5.831c0,-3.222 2.625,-5.831 5.844,-5.831c3.218,0 5.843,2.609 5.843,5.831Z" style="fill:none;stroke:#2d3384;stroke-width:4.69px;"/><path d="M283.881,88.028c0,3.222 -2.609,5.831 -5.834,5.831c-3.219,0 -5.831,-2.609 -5.831,-5.831c0,-3.219 2.612,-5.831 5.831,-5.831c3.225,0 5.834,2.612 5.834,5.831Z" style="fill:none;stroke:#2d3384;stroke-width:4.69px;"/><path d="M142.359,220.619c0,3.219 -2.612,5.831 -5.834,5.831c-3.222,0 -5.831,-2.612 -5.831,-5.831c0,-3.222 2.609,-5.831 5.831,-5.831c3.222,0 5.834,2.609 5.834,5.831Z" style="fill:none;stroke:#2d3384;stroke-width:4.69px;"/><path d="M1035.36,238.709c0,5.738 -4.656,10.391 -10.406,10.391c-5.718,0 -10.375,-4.653 -10.375,-10.391c0,-5.737 4.657,-10.39 10.375,-10.39c5.75,0 10.406,4.653 10.406,10.39Z" style="fill:none;stroke:#2d3384;stroke-width:4.69px;"/><path d="M1046.64,922.763c0,5.74 -4.657,10.393 -10.407,10.393c-5.75,0 -10.374,-4.653 -10.374,-10.393c0,-5.738 4.624,-10.391 10.374,-10.391c5.75,0 10.407,4.653 10.407,10.391Z" style="fill:none;stroke:#2d3384;stroke-width:4.69px;"/><path d="M76.725,537.803c0,5.741 -4.656,10.394 -10.394,10.394c-5.74,0 -10.39,-4.653 -10.39,-10.394c0,-5.737 4.65,-10.39 10.39,-10.39c5.738,0 10.394,4.653 10.394,10.39Z" style="fill:none;stroke:#2d3384;stroke-width:4.69px;"/><path d="M166.072,924.266c0,5.74 -4.65,10.39 -10.391,10.39c-5.737,0 -10.39,-4.65 -10.39,-10.39c0,-5.741 4.653,-10.391 10.39,-10.391c5.741,0 10.391,4.65 10.391,10.391Z" style="fill:none;stroke:#2d3384;stroke-width:4.69px;"/><path d="M498.334,1136.37c0,5.741 -4.656,10.391 -10.393,10.391c-5.738,0 -10.391,-4.65 -10.391,-10.391c0,-5.738 4.653,-10.391 10.391,-10.391c5.737,0 10.393,4.653 10.393,10.391Z" style="fill:none;stroke:#2d3384;stroke-width:4.69px;"/><path d="M704.828,1136.37c0,5.741 -4.656,10.391 -10.406,10.391c-5.719,0 -10.375,-4.65 -10.375,-10.391c0,-5.738 4.656,-10.391 10.375,-10.391c5.75,0 10.406,4.653 10.406,10.391Z" style="fill:none;stroke:#2d3384;stroke-width:4.69px;"/><path d="M860.297,88.028c0,5.741 -4.656,10.391 -10.406,10.391c-5.719,0 -10.375,-4.65 -10.375,-10.391c0,-5.737 4.656,-10.39 10.375,-10.39c5.75,0 10.406,4.653 10.406,10.39Z" style="fill:none;stroke:#2d3384;stroke-width:4.69px;"/><path d="M980.047,273.206c-6.531,0 -11.844,-5.297 -11.844,-11.831l0,-85.416l23.688,0l0,85.416c0,6.534 -5.313,11.831 -11.844,11.831Z" style="fill:none;stroke:#2d3384;stroke-width:4.69px;"/><path d="M994.235,175.959l-28.344,0c-3.938,0 -7.125,-3.181 -7.125,-7.106c0,-3.925 3.187,-7.106 7.125,-7.106l28.344,0c3.906,0 7.093,3.181 7.093,7.106c0,3.925 -3.187,7.106 -7.093,7.106Z" style="fill:none;stroke:#2d3384;stroke-width:4.69px;"/><path d="M15.719,656.919l0,-111.463l179.078,111.463l-179.078,0Z" style="fill:none;stroke:#2d3384;stroke-width:4.69px;"/><path d="M138.816,640.922l-107.097,0l0,-66.663l107.097,66.663Z" style="fill:none;stroke:#2d3384;stroke-width:4.69px;"/><path d="M44,563.059l-3.165,5.875" style="fill:none;stroke:#2d3384;stroke-width:4.69px;"/><path d="M53.438,568.934l-3.163,5.875" style="fill:none;stroke:#2d3384;stroke-width:4.69px;"/><path d="M62.878,574.809l-3.166,5.875" style="fill:none;stroke:#2d3384;stroke-width:4.69px;"/><path d="M72.316,580.684l-3.166,5.872" style="fill:none;stroke:#2d3384;stroke-width:4.69px;"/><path d="M81.756,586.556l-3.168,5.875" style="fill:none;stroke:#2d3384;stroke-width:4.69px;"/><path d="M91.194,592.431l-3.166,5.875" style="fill:none;stroke:#2d3384;stroke-width:4.69px;"/><path d="M100.634,598.306l-3.168,5.878" style="fill:none;stroke:#2d3384;stroke-width:4.69px;"/><path d="M110.072,604.184l-3.166,5.875" style="fill:none;stroke:#2d3384;stroke-width:4.69px;"/><path d="M119.513,610.059l-3.169,5.872" style="fill:none;stroke:#2d3384;stroke-width:4.69px;"/><path d="M128.95,615.931l-3.166,5.875" style="fill:none;stroke:#2d3384;stroke-width:4.69px;"/><path d="M138.388,621.806l-3.166,5.875" style="fill:none;stroke:#2d3384;stroke-width:4.69px;"/><path d="M147.828,627.681l-3.165,5.875" style="fill:none;stroke:#2d3384;stroke-width:4.69px;"/><path d="M157.266,633.556l-3.166,5.872" style="fill:none;stroke:#2d3384;stroke-width:4.69px;"/><path d="M166.706,639.428l-3.169,5.875" style="fill:none;stroke:#2d3384;stroke-width:4.69px;"/><path d="M176.144,645.303l-3.169,5.875" style="fill:none;stroke:#2d3384;stroke-width:4.69px;"/><path d="M450.844,9.181l0,22.282" style="fill:none;stroke:#2d3384;stroke-width:4.69px;"/><path d="M461.988,20.322l-22.282,0" style="fill:none;stroke:#2d3384;stroke-width:4.69px;"/><path d="M896.391,305.694l0,22.281" style="fill:none;stroke:#2d3384;stroke-width:4.69px;"/><path d="M907.547,316.834l-22.281,0" style="fill:none;stroke:#2d3384;stroke-width:4.69px;"/><path d="M1128.2,390.872l0,22.281" style="fill:none;stroke:#2d3384;stroke-width:4.69px;"/><path d="M1139.33,402.013l-22.281,0" style="fill:none;stroke:#2d3384;stroke-width:4.69px;"/><path d="M314.213,277.966l0,22.278" style="fill:none;stroke:#2d3384;stroke-width:4.69px;"/><path d="M325.35,289.106l-22.281,0" style="fill:none;stroke:#2d3384;stroke-width:4.69px;"/><path d="M217.706,111.278l0,22.278" style="fill:none;stroke:#2d3384;stroke-width:4.69px;"/><path d="M228.844,122.419l-22.278,0" style="fill:none;stroke:#2d3384;stroke-width:4.69px;"/><path d="M59.712,335.003l0,22.281" style="fill:none;stroke:#2d3384;stroke-width:4.69px;"/><path d="M70.853,346.144l-22.281,0" style="fill:none;stroke:#2d3384;stroke-width:4.69px;"/><path d="M26.863,683.284l0,22.279" style="fill:none;stroke:#2d3384;stroke-width:4.69px;"/><path d="M38,694.425l-22.281,0" style="fill:none;stroke:#2d3384;stroke-width:4.69px;"/><path d="M235.606,781.859l0,22.279" style="fill:none;stroke:#2d3384;stroke-width:4.69px;"/><path d="M246.747,792.997l-22.281,0" style="fill:none;stroke:#2d3384;stroke-width:4.69px;"/><path d="M430.359,1109.47l0,22.278" style="fill:none;stroke:#2d3384;stroke-width:4.69px;"/><path d="M441.5,1120.6l-22.281,0" style="fill:none;stroke:#2d3384;stroke-width:4.69px;"/><path d="M858.078,974.713l0,22.281" style="fill:none;stroke:#2d3384;stroke-width:4.69px;"/><path d="M869.203,985.856l-22.281,0" style="fill:none;stroke:#2d3384;stroke-width:4.69px;"/><path d="M871.797,831.338l0,22.278" style="fill:none;stroke:#2d3384;stroke-width:4.69px;"/><path d="M882.953,842.475l-22.281,0" style="fill:none;stroke:#2d3384;stroke-width:4.69px;"/><path d="M942.078,757.425l0,22.281" style="fill:none;stroke:#2d3384;stroke-width:4.69px;"/><path d="M953.203,768.569l-22.281,0" style="fill:none;stroke:#2d3384;stroke-width:4.69px;"/><path d="M278.047,1035.47l0,22.281" style="fill:none;stroke:#2d3384;stroke-width:4.69px;"/><path d="M289.191,1046.61l-22.282,0" style="fill:none;stroke:#2d3384;stroke-width:4.69px;"/><path d="M411.259,966.3l0,22.281" style="fill:none;stroke:#2d3384;stroke-width:4.69px;"/><path d="M422.4,977.438l-22.281,0" style="fill:none;stroke:#2d3384;stroke-width:4.69px;"/><path d="M166.072,563.059c0,5.738 -4.65,10.391 -10.391,10.391c-5.737,0 -10.39,-4.653 -10.39,-10.391c0,-5.74 4.653,-10.39 10.39,-10.39c5.741,0 10.391,4.65 10.391,10.39Z" style="fill:none;stroke:#2d3384;stroke-width:4.69px;"/><path d="M151.828,596.725l-2.65,-9.072c-4.478,-2.59 -7.097,-4.103 -11.575,-6.697l-9.162,2.222c-1.531,-2.025 -2.869,-4.25 -3.857,-6.622l6.522,-6.818c0.004,-5.172 0.007,-8.197 0.013,-13.369l-6.535,-6.856c1.041,-2.372 2.326,-4.597 3.907,-6.625l9.115,2.215c4.478,-2.587 7.097,-4.1 11.579,-6.684l2.643,-9.028c1.235,-0.15 2.519,-0.247 3.853,-0.247c1.338,0 2.622,0.097 3.86,0.247l2.64,9.028c4.481,2.584 7.1,4.097 11.578,6.684l9.116,-2.215c1.581,2.028 2.866,4.253 3.906,6.625l-6.531,6.856c0.003,5.172 0.006,8.197 0.009,13.369l6.522,6.818c-0.987,2.372 -2.325,4.597 -3.856,6.622l-9.162,-2.222c-4.475,2.594 -7.094,4.107 -11.575,6.697l-2.647,9.072c-1.238,0.15 -2.522,0.247 -3.86,0.247c-1.334,0 -2.618,-0.097 -3.853,-0.247Z" style="fill:none;stroke:#2d3384;stroke-width:4.69px;"/><path d="M1077.73,804.403c0,5.741 -4.656,10.394 -10.406,10.394c-5.719,0 -10.375,-4.653 -10.375,-10.394c0,-5.737 4.656,-10.39 10.375,-10.39c5.75,0 10.406,4.653 10.406,10.39Z" style="fill:none;stroke:#2d3384;stroke-width:4.69px;"/><path d="M1063.48,838.075l-2.656,-9.075c-4.468,-2.591 -7.094,-4.103 -11.562,-6.694l-9.188,2.222c-1.531,-2.028 -2.843,-4.253 -3.844,-6.625l6.532,-6.822c0,-5.168 0,-8.193 0,-13.365l-6.532,-6.86c1.032,-2.368 2.313,-4.593 3.907,-6.622l9.125,2.216c4.468,-2.587 7.094,-4.1 11.562,-6.684l2.656,-9.028c1.219,-0.15 2.532,-0.247 3.844,-0.247c1.344,0 2.625,0.097 3.875,0.247l2.625,9.028c4.5,2.584 7.094,4.097 11.594,6.684l9.094,-2.216c1.593,2.029 2.875,4.254 3.906,6.622l-6.531,6.86c0,5.172 0.031,8.197 0.031,13.365l6.5,6.822c-0.969,2.372 -2.313,4.597 -3.844,6.625l-9.156,-2.222c-4.5,2.591 -7.094,4.103 -11.594,6.694l-2.625,9.075c-1.25,0.147 -2.531,0.247 -3.875,0.247c-1.312,0 -2.625,-0.1 -3.844,-0.247Z" style="fill:none;stroke:#2d3384;stroke-width:4.69px;"/><path d="M756.016,1086.54c0,5.737 -4.657,10.39 -10.375,10.39c-5.75,0 -10.406,-4.653 -10.406,-10.39c0,-5.741 4.656,-10.394 10.406,-10.394c5.718,0 10.375,4.653 10.375,10.394Z" style="fill:none;stroke:#2d3384;stroke-width:4.69px;"/><path d="M741.766,1120.21l-2.656,-9.071c-4.469,-2.591 -7.094,-4.107 -11.563,-6.697l-9.156,2.222c-1.531,-2.025 -2.875,-4.25 -3.875,-6.625l6.531,-6.819c0,-5.172 0,-8.197 0,-13.366l-6.531,-6.856c1.062,-2.375 2.344,-4.6 3.906,-6.628l9.125,2.215c4.469,-2.584 7.094,-4.096 11.594,-6.684l2.625,-9.028c1.25,-0.15 2.531,-0.247 3.875,-0.247c1.312,0 2.593,0.097 3.843,0.247l2.657,9.028c4.468,2.588 7.093,4.1 11.562,6.684l9.125,-2.215c1.563,2.028 2.844,4.253 3.907,6.628l-6.532,6.856c0,5.169 0,8.194 0,13.366l6.532,6.819c-1.001,2.375 -2.344,4.6 -3.876,6.625l-9.156,-2.222c-4.469,2.59 -7.094,4.106 -11.562,6.697l-2.657,9.071c-1.25,0.15 -2.531,0.247 -3.843,0.247c-1.344,0 -2.625,-0.097 -3.875,-0.247Z" style="fill:none;stroke:#2d3384;stroke-width:4.69px;"/><path d="M250.781,359.975l-85.509,0l0,-18.825l85.509,0l19.36,9.413l-19.36,9.412Z" style="fill:none;stroke:#2d3384;stroke-width:4.69px;"/><path d="M180.194,341.15l0,18.825" style="fill:none;stroke:#2d3384;stroke-width:4.69px;"/><path d="M250.781,341.15l0,18.825" style="fill:none;stroke:#2d3384;stroke-width:4.69px;"/><path d="M61.222,804.403l-39.972,-75.594l16.641,-8.796l39.968,75.593l0.729,21.516l-17.366,-12.719Z" style="fill:none;stroke:#2d3384;stroke-width:4.69px;"/><path d="M44.866,733.206l-16.641,8.8" style="fill:none;stroke:#2d3384;stroke-width:4.69px;"/><path d="M77.859,795.606l-16.637,8.797" style="fill:none;stroke:#2d3384;stroke-width:4.69px;"/><path d="M1120.58,439.153l9.531,16.528l18.657,3.941l-12.781,14.153l2,18.963l-17.407,-7.779l-17.406,7.779l2.031,-18.963l-12.781,-14.153l18.656,-3.941l9.5,-16.528Z" style="fill:none;stroke:#2d3384;stroke-width:4.69px;"/><path d="M355.569,922.763l9.512,16.528l18.66,3.94l-12.782,14.153l2.019,18.966l-17.409,-7.778l-17.413,7.778l2.019,-18.966l-12.781,-14.153l18.662,-3.94l9.513,-16.528Z" style="fill:none;stroke:#2d3384;stroke-width:4.69px;"/><path d="M1056.14,853.381l7.281,12.669l14.312,3.019l-9.812,10.847l1.562,14.534l-13.343,-5.962l-13.344,5.962l1.531,-14.534l-9.781,-10.847l14.281,-3.019l7.313,-12.669Z" style="fill:none;stroke:#2d3384;stroke-width:4.69px;"/><path d="M1051.83,598.85l-69.75,0c-5.343,0 -9.687,-4.337 -9.687,-9.684l0,-43.022c0,-5.347 4.344,-9.681 9.687,-9.681l69.75,0c5.344,0 9.688,4.334 9.688,9.681l0,43.022c0,5.347 -4.344,9.684 -9.688,9.684Z" style="fill:none;stroke:#2d3384;stroke-width:4.69px;"/><path d="M1032.67,567.656l-26.906,-15.525l0,31.047l26.906,-15.522l-26.906,-15.525l0,31.047l26.906,-15.522Z" style="fill:none;stroke:#2d3384;stroke-width:4.69px;"/><path d="M213.038,701.225l0,60.503c0,6.363 -5.16,11.522 -11.522,11.522l-4.613,0l0,25.941c0,3.847 -4.837,5.556 -7.253,2.562l-22.984,-28.503l-67.119,0c-6.363,0 -11.519,-5.159 -11.519,-11.522l0,-60.503c0,-6.341 5.144,-11.487 11.491,-11.487l102.031,0c6.344,0 11.488,5.146 11.488,11.487Z" style="fill:none;stroke:#2d3384;stroke-width:4.69px;"/><path d="M105.875,712.328l89.316,0" style="fill:none;stroke:#2d3384;stroke-width:4.69px;"/><path d="M105.875,729.669l89.316,0" style="fill:none;stroke:#2d3384;stroke-width:4.69px;"/><path d="M105.875,747.016l89.316,0" style="fill:none;stroke:#2d3384;stroke-width:4.69px;"/><rect x="189.472" y="842.475" width="114.553" height="163.581" style="fill:none;stroke:#2d3384;stroke-width:4.69px;"/><rect x="206.46" y="872.366" width="80.575" height="29.444" style="fill:none;"/><clipPath id="_clip7"><rect x="206.46" y="872.366" width="80.575" height="29.444"/></clipPath><g clip-path="url(#_clip7)"><path d="M49.931,849.85l126.435,88.531" style="fill:none;stroke:#2d3384;stroke-width:3.23px;"/><path d="M43.916,858.441l126.437,88.531" style="fill:none;stroke:#2d3384;stroke-width:3.23px;"/><path d="M68.253,823.681l126.438,88.535" style="fill:none;stroke:#2d3384;stroke-width:3.23px;"/><path d="M62.238,832.272l126.437,88.534" style="fill:none;stroke:#2d3384;stroke-width:3.23px;"/><path d="M56.222,840.863l126.437,88.534" style="fill:none;stroke:#2d3384;stroke-width:3.23px;"/><path d="M50.21,849.453l126.434,88.535" style="fill:none;stroke:#2d3384;stroke-width:3.23px;"/><path d="M86.578,797.513l126.435,88.534" style="fill:none;stroke:#2d3384;stroke-width:3.23px;"/><path d="M80.562,806.103l126.438,88.535" style="fill:none;stroke:#2d3384;stroke-width:3.23px;"/><path d="M74.547,814.694l126.437,88.534" style="fill:none;stroke:#2d3384;stroke-width:3.23px;"/><path d="M68.531,823.284l126.438,88.535" style="fill:none;stroke:#2d3384;stroke-width:3.23px;"/><path d="M104.9,771.344l126.438,88.534" style="fill:none;stroke:#2d3384;stroke-width:3.23px;"/><path d="M98.884,779.934l126.438,88.535" style="fill:none;stroke:#2d3384;stroke-width:3.23px;"/><path d="M92.869,788.525l126.437,88.534" style="fill:none;stroke:#2d3384;stroke-width:3.23px;"/><path d="M86.853,797.119l126.438,88.531" style="fill:none;stroke:#2d3384;stroke-width:3.23px;"/><path d="M111.194,762.359l126.437,88.532" style="fill:none;stroke:#2d3384;stroke-width:3.23px;"/><path d="M105.178,770.95l126.438,88.531" style="fill:none;stroke:#2d3384;stroke-width:3.23px;"/><path d="M176.366,938.381l126.437,88.535" style="fill:none;stroke:#2d3384;stroke-width:3.23px;"/><path d="M170.353,946.972l126.435,88.534" style="fill:none;stroke:#2d3384;stroke-width:3.23px;"/><path d="M194.691,912.216l126.437,88.531" style="fill:none;stroke:#2d3384;stroke-width:3.23px;"/><path d="M188.675,920.806l126.438,88.532" style="fill:none;stroke:#2d3384;stroke-width:3.23px;"/><path d="M182.659,929.397l126.438,88.531" style="fill:none;stroke:#2d3384;stroke-width:3.23px;"/><path d="M176.644,937.988l126.437,88.531" style="fill:none;stroke:#2d3384;stroke-width:3.23px;"/><path d="M213.013,886.047l126.437,88.531" style="fill:none;stroke:#2d3384;stroke-width:3.23px;"/><path d="M207,894.638l126.434,88.531" style="fill:none;stroke:#2d3384;stroke-width:3.23px;"/><path d="M200.984,903.228l126.435,88.531" style="fill:none;stroke:#2d3384;stroke-width:3.23px;"/><path d="M194.969,911.819l126.437,88.531" style="fill:none;stroke:#2d3384;stroke-width:3.23px;"/><path d="M231.338,859.878l126.437,88.531" style="fill:none;stroke:#2d3384;stroke-width:3.23px;"/><path d="M225.322,868.469l126.437,88.531" style="fill:none;stroke:#2d3384;stroke-width:3.23px;"/><path d="M219.306,877.059l126.438,88.532" style="fill:none;stroke:#2d3384;stroke-width:3.23px;"/><path d="M213.291,885.65l126.437,88.531" style="fill:none;stroke:#2d3384;stroke-width:3.23px;"/><path d="M237.631,850.891l126.435,88.531" style="fill:none;stroke:#2d3384;stroke-width:3.23px;"/><path d="M231.616,859.481l126.434,88.532" style="fill:none;stroke:#2d3384;stroke-width:3.23px;"/><path d="M123.225,745.178l126.434,88.531" style="fill:none;stroke:#2d3384;stroke-width:3.23px;"/><path d="M117.21,753.769l126.434,88.531" style="fill:none;stroke:#2d3384;stroke-width:3.23px;"/><path d="M141.547,719.009l126.437,88.532" style="fill:none;stroke:#2d3384;stroke-width:3.23px;"/><path d="M135.531,727.6l126.438,88.531" style="fill:none;stroke:#2d3384;stroke-width:3.23px;"/><path d="M129.516,736.191l126.437,88.531" style="fill:none;stroke:#2d3384;stroke-width:3.23px;"/><path d="M123.5,744.781l126.438,88.532" style="fill:none;stroke:#2d3384;stroke-width:3.23px;"/><path d="M159.872,692.841l126.434,88.531" style="fill:none;stroke:#2d3384;stroke-width:3.23px;"/><path d="M153.856,701.431l126.435,88.532" style="fill:none;stroke:#2d3384;stroke-width:3.23px;"/><path d="M147.841,710.022l126.437,88.531" style="fill:none;stroke:#2d3384;stroke-width:3.23px;"/><path d="M141.825,718.613l126.438,88.531" style="fill:none;stroke:#2d3384;stroke-width:3.23px;"/><path d="M178.194,666.672l126.437,88.531" style="fill:none;stroke:#2d3384;stroke-width:3.23px;"/><path d="M172.178,675.263l126.438,88.531" style="fill:none;stroke:#2d3384;stroke-width:3.23px;"/><path d="M166.163,683.853l126.437,88.531" style="fill:none;stroke:#2d3384;stroke-width:3.23px;"/><path d="M160.147,692.444l126.437,88.531" style="fill:none;stroke:#2d3384;stroke-width:3.23px;"/><path d="M184.488,657.684l126.434,88.532" style="fill:none;stroke:#2d3384;stroke-width:3.23px;"/><path d="M178.472,666.275l126.437,88.531" style="fill:none;stroke:#2d3384;stroke-width:3.23px;"/><path d="M249.659,833.709l126.438,88.532" style="fill:none;stroke:#2d3384;stroke-width:3.23px;"/><path d="M243.644,842.3l126.437,88.531" style="fill:none;stroke:#2d3384;stroke-width:3.23px;"/><path d="M267.984,807.541l126.438,88.531" style="fill:none;stroke:#2d3384;stroke-width:3.23px;"/><path d="M261.969,816.131l126.437,88.532" style="fill:none;stroke:#2d3384;stroke-width:3.23px;"/><path d="M255.953,824.722l126.438,88.531" style="fill:none;stroke:#2d3384;stroke-width:3.23px;"/><path d="M249.938,833.313l126.437,88.531" style="fill:none;stroke:#2d3384;stroke-width:3.23px;"/><path d="M286.306,781.372l126.438,88.531" style="fill:none;stroke:#2d3384;stroke-width:3.23px;"/><path d="M280.291,789.963l126.437,88.531" style="fill:none;stroke:#2d3384;stroke-width:3.23px;"/><path d="M274.278,798.553l126.434,88.531" style="fill:none;stroke:#2d3384;stroke-width:3.23px;"/><path d="M268.263,807.144l126.434,88.531" style="fill:none;stroke:#2d3384;stroke-width:3.23px;"/><path d="M304.631,755.203l126.438,88.531" style="fill:none;stroke:#2d3384;stroke-width:3.23px;"/><path d="M298.616,763.794l126.437,88.531" style="fill:none;stroke:#2d3384;stroke-width:3.23px;"/><path d="M292.6,772.384l126.438,88.532" style="fill:none;stroke:#2d3384;stroke-width:3.23px;"/><path d="M286.584,780.975l126.438,88.531" style="fill:none;stroke:#2d3384;stroke-width:3.23px;"/><path d="M310.922,746.216l126.438,88.531" style="fill:none;stroke:#2d3384;stroke-width:3.23px;"/><path d="M304.909,754.806l126.435,88.532" style="fill:none;stroke:#2d3384;stroke-width:3.23px;"/></g><rect x="206.46" y="872.366" width="80.575" height="29.444" style="fill:none;stroke:#2d3384;stroke-width:4.69px;"/><rect x="206.46" y="872.366" width="80.575" height="29.444" style="fill:none;stroke:#2d3384;stroke-width:4.69px;"/><path d="M207.709,935.291l78.078,0" style="fill:none;stroke:#2d3384;stroke-width:4.69px;"/><path d="M207.709,952.134l78.078,0" style="fill:none;stroke:#2d3384;stroke-width:4.69px;"/><path d="M1145.42,543.369c0,10.562 -8.562,19.128 -19.125,19.128c-10.562,0 -19.125,-8.566 -19.125,-19.128c0,-10.566 8.563,-19.128 19.125,-19.128c10.563,0 19.125,8.562 19.125,19.128Z" style="fill:none;stroke:#2d3384;stroke-width:4.69px;"/><path d="M1161.64,629.359l-66.875,0l0,-36.734c0,-16.641 13.5,-30.128 30.125,-30.128l6.593,0c16.657,0 30.157,13.487 30.157,30.128l0,36.734Z" style="fill:none;stroke:#2d3384;stroke-width:4.69px;"/><path d="M592.762,1150.05l-45.34,0l6.031,-48.131l33.281,0l6.028,48.131Z" style="fill:none;stroke:#2d3384;stroke-width:4.69px;"/><rect x="534.797" y="1150.03" width="70.562" height="11.072" style="fill:none;stroke:#2d3384;stroke-width:4.69px;"/><rect x="455.316" y="961.447" width="229.544" height="140.131" style="fill:none;stroke:#2d3384;stroke-width:4.69px;"/><rect x="467.328" y="973.463" width="205.531" height="116.103" style="fill:none;stroke:#2d3384;stroke-width:4.69px;"/><rect x="546.859" y="996.847" width="105.469" height="69.438" style="fill:none;stroke:#2d3384;stroke-width:4.69px;"/><g><clipPath id="_clip8"><rect x="546.859" y="1009.75" width="105.469" height="56.534"/></clipPath><g clip-path="url(#_clip8)"><path d="M433.022,1149.7l126.437,88.531" style="fill:none;stroke:#2d3384;stroke-width:3.23px;"/><path d="M427.006,1158.29l126.438,88.531" style="fill:none;stroke:#2d3384;stroke-width:3.23px;"/><path d="M451.344,1123.53l126.437,88.531" style="fill:none;stroke:#2d3384;stroke-width:3.23px;"/><path d="M445.328,1132.12l126.438,88.531" style="fill:none;stroke:#2d3384;stroke-width:3.23px;"/><path d="M439.316,1140.71l126.434,88.532" style="fill:none;stroke:#2d3384;stroke-width:3.23px;"/><path d="M433.3,1149.3l126.434,88.531" style="fill:none;stroke:#2d3384;stroke-width:3.23px;"/><path d="M469.669,1097.36l126.437,88.532" style="fill:none;stroke:#2d3384;stroke-width:3.23px;"/><path d="M463.653,1105.95l126.438,88.531" style="fill:none;stroke:#2d3384;stroke-width:3.23px;"/><path d="M457.637,1114.54l126.438,88.531" style="fill:none;stroke:#2d3384;stroke-width:3.23px;"/><path d="M451.622,1123.13l126.437,88.532" style="fill:none;stroke:#2d3384;stroke-width:3.23px;"/><path d="M487.991,1071.19l126.437,88.531" style="fill:none;stroke:#2d3384;stroke-width:3.23px;"/><path d="M481.975,1079.78l126.438,88.532" style="fill:none;stroke:#2d3384;stroke-width:3.23px;"/><path d="M475.963,1088.37l126.434,88.531" style="fill:none;stroke:#2d3384;stroke-width:3.23px;"/><path d="M469.947,1096.96l126.434,88.531" style="fill:none;stroke:#2d3384;stroke-width:3.23px;"/><path d="M494.285,1062.2l126.437,88.531" style="fill:none;stroke:#2d3384;stroke-width:3.23px;"/><path d="M488.269,1070.79l126.438,88.531" style="fill:none;stroke:#2d3384;stroke-width:3.23px;"/><path d="M506.316,1045.02l126.437,88.531" style="fill:none;stroke:#2d3384;stroke-width:3.23px;"/><path d="M500.3,1053.61l126.438,88.531" style="fill:none;stroke:#2d3384;stroke-width:3.23px;"/><path d="M524.637,1018.85l126.438,88.535" style="fill:none;stroke:#2d3384;stroke-width:3.23px;"/><path d="M518.622,1027.44l126.437,88.534" style="fill:none;stroke:#2d3384;stroke-width:3.23px;"/><path d="M512.606,1036.03l126.438,88.535" style="fill:none;stroke:#2d3384;stroke-width:3.23px;"/><path d="M506.594,1044.62l126.434,88.534" style="fill:none;stroke:#2d3384;stroke-width:3.23px;"/><path d="M542.963,992.684l126.437,88.535" style="fill:none;stroke:#2d3384;stroke-width:3.23px;"/><path d="M536.947,1001.27l126.437,88.534" style="fill:none;stroke:#2d3384;stroke-width:3.23px;"/><path d="M530.931,1009.87l126.438,88.534" style="fill:none;stroke:#2d3384;stroke-width:3.23px;"/><path d="M524.916,1018.46l126.437,88.535" style="fill:none;stroke:#2d3384;stroke-width:3.23px;"/><path d="M561.285,966.516l126.437,88.534" style="fill:none;stroke:#2d3384;stroke-width:3.23px;"/><path d="M555.269,975.106l126.437,88.535" style="fill:none;stroke:#2d3384;stroke-width:3.23px;"/><path d="M549.253,983.7l126.438,88.531" style="fill:none;stroke:#2d3384;stroke-width:3.23px;"/><path d="M543.241,992.291l126.434,88.531" style="fill:none;stroke:#2d3384;stroke-width:3.23px;"/><path d="M567.578,957.531l126.438,88.532" style="fill:none;stroke:#2d3384;stroke-width:3.23px;"/><path d="M561.563,966.122l126.437,88.531" style="fill:none;stroke:#2d3384;stroke-width:3.23px;"/><path d="M579.609,940.35l126.435,88.531" style="fill:none;stroke:#2d3384;stroke-width:3.23px;"/><path d="M573.594,948.941l126.437,88.531" style="fill:none;stroke:#2d3384;stroke-width:3.23px;"/><path d="M597.931,914.181l126.438,88.532" style="fill:none;stroke:#2d3384;stroke-width:3.23px;"/><path d="M591.916,922.772l126.437,88.531" style="fill:none;stroke:#2d3384;stroke-width:3.23px;"/><path d="M585.9,931.363l126.438,88.531" style="fill:none;stroke:#2d3384;stroke-width:3.23px;"/><path d="M579.884,939.953l126.438,88.531" style="fill:none;stroke:#2d3384;stroke-width:3.23px;"/><path d="M616.256,888.013l126.435,88.531" style="fill:none;stroke:#2d3384;stroke-width:3.23px;"/><path d="M610.241,896.603l126.437,88.531" style="fill:none;stroke:#2d3384;stroke-width:3.23px;"/><path d="M604.225,905.194l126.438,88.531" style="fill:none;stroke:#2d3384;stroke-width:3.23px;"/><path d="M598.209,913.784l126.438,88.532" style="fill:none;stroke:#2d3384;stroke-width:3.23px;"/><path d="M634.578,861.844l126.438,88.531" style="fill:none;stroke:#2d3384;stroke-width:3.23px;"/><path d="M628.563,870.434l126.437,88.532" style="fill:none;stroke:#2d3384;stroke-width:3.23px;"/><path d="M622.547,879.025l126.438,88.531" style="fill:none;stroke:#2d3384;stroke-width:3.23px;"/><path d="M616.531,887.616l126.438,88.531" style="fill:none;stroke:#2d3384;stroke-width:3.23px;"/><path d="M640.872,852.856l126.437,88.532" style="fill:none;stroke:#2d3384;stroke-width:3.23px;"/><path d="M634.857,861.447l126.437,88.531" style="fill:none;stroke:#2d3384;stroke-width:3.23px;"/></g></g><rect x="546.859" y="1009.75" width="105.469" height="56.534" style="fill:none;stroke:#2d3384;stroke-width:4.69px;"/><path d="M546.859,1009.75l105.469,0" style="fill:none;stroke:#2d3384;stroke-width:4.69px;"/><path d="M635.328,996.847l0,12.903" style="fill:none;stroke:#2d3384;stroke-width:4.69px;"/><path d="M626.578,996.847l0,12.903" style="fill:none;stroke:#2d3384;stroke-width:4.69px;"/><rect x="487.941" y="996.847" width="42.544" height="31.422" style="fill:none;stroke:#2d3384;stroke-width:4.69px;"/><rect x="487.941" y="1038.03" width="17.013" height="27.006" style="fill:none;stroke:#2d3384;stroke-width:4.69px;"/><rect x="513.203" y="1038.03" width="17.281" height="27.006" style="fill:none;stroke:#2d3384;stroke-width:4.69px;"/><path d="M125.813,804.153c-18.816,0.544 -34.504,16.203 -35.079,35.016c-0.493,16.275 9.772,30.234 24.244,35.269l0,16.871c0,1.754 1.419,3.175 3.169,3.175l17.425,0c1.75,0 3.169,-1.421 3.169,-3.175l0,-16.831c14.134,-4.919 24.303,-18.39 24.303,-34.178c0,-20.316 -16.781,-36.737 -37.231,-36.147Z" style="fill:none;stroke:#2d3384;stroke-width:4.69px;"/><path d="M134.416,907.922l-15.16,0l-3.518,-13.438l22.193,0l-3.515,13.438Z" style="fill:none;stroke:#2d3384;stroke-width:4.69px;"/><path d="M114.978,887.388l23.763,0" style="fill:none;stroke:#2d3384;stroke-width:4.69px;"/><path d="M114.591,874.934l23.762,0" style="fill:none;stroke:#2d3384;stroke-width:4.69px;"/><path d="M126.878,874.159l0,-22.731" style="fill:none;stroke:#2d3384;stroke-width:4.69px;"/><path d="M140.309,837.997c0,7.419 -6.012,13.431 -13.431,13.431c-7.419,0 -13.428,-6.012 -13.428,-13.431c0,-7.419 6.009,-13.431 13.428,-13.431c7.419,0 13.431,6.012 13.431,13.431Z" style="fill:none;stroke:#2d3384;stroke-width:4.69px;"/><path d="M824.609,977.188c0,30.518 -24.718,55.259 -55.25,55.259c-30.531,0 -55.249,-24.741 -55.249,-55.259c0,-30.519 24.718,-55.26 55.249,-55.26c30.532,0 55.25,24.741 55.25,55.26Z" style="fill:none;stroke:#2d3384;stroke-width:4.69px;stroke-linecap:round;stroke-linejoin:round;"/><path d="M769.359,921.928l0,55.26l55.25,0" style="fill:none;stroke:#2d3384;stroke-width:4.69px;stroke-linecap:round;stroke-linejoin:round;"/><path d="M796.985,1025.04l-27.626,-47.85" style="fill:none;stroke:#2d3384;stroke-width:4.69px;stroke-linecap:round;stroke-linejoin:round;"/><path d="M783.172,977.188l-7.594,10.746" style="fill:none;stroke:#2d3384;stroke-width:4.69px;stroke-linecap:round;stroke-linejoin:round;"/><path d="M790.735,977.188l-11.375,17.334" style="fill:none;stroke:#2d3384;stroke-width:4.69px;stroke-linecap:round;stroke-linejoin:round;"/><path d="M797.797,977.188l-14.031,23.925" style="fill:none;stroke:#2d3384;stroke-width:4.69px;stroke-linecap:round;stroke-linejoin:round;"/><path d="M807.391,977.188l-19.157,32.678" style="fill:none;stroke:#2d3384;stroke-width:4.69px;stroke-linecap:round;stroke-linejoin:round;"/><path d="M818.672,977.188l-24.344,41.481" style="fill:none;stroke:#2d3384;stroke-width:4.69px;stroke-linecap:round;stroke-linejoin:round;"/><path d="M824.609,982.188l-23.281,40.068" style="fill:none;stroke:#2d3384;stroke-width:4.69px;stroke-linecap:round;stroke-linejoin:round;"/><path d="M424.528,1057.75c0,28.869 -23.406,52.272 -52.275,52.272c-28.869,0 -52.275,-23.403 -52.275,-52.272c0,-28.872 23.406,-52.275 52.275,-52.275c28.869,0 52.275,23.403 52.275,52.275Z" style="fill:none;stroke:#2d3384;stroke-width:4.69px;"/><path d="M372.253,1005.48l0,13.266" style="fill:none;stroke:#2d3384;stroke-width:4.69px;stroke-linecap:round;stroke-linejoin:round;"/><path d="M372.253,1110.03l0,-13.266" style="fill:none;stroke:#2d3384;stroke-width:4.69px;stroke-linecap:round;stroke-linejoin:round;"/><path d="M424.528,1057.75l-13.269,0" style="fill:none;stroke:#2d3384;stroke-width:4.69px;stroke-linecap:round;stroke-linejoin:round;"/><path d="M319.978,1057.75l13.269,0" style="fill:none;stroke:#2d3384;stroke-width:4.69px;stroke-linecap:round;stroke-linejoin:round;"/><path d="M335.291,1020.79l9.381,9.381" style="fill:none;stroke:#2d3384;stroke-width:4.69px;stroke-linecap:round;stroke-linejoin:round;"/><path d="M409.216,1094.72l-9.381,-9.382" style="fill:none;stroke:#2d3384;stroke-width:4.69px;stroke-linecap:round;stroke-linejoin:round;"/><path d="M409.216,1020.79l-9.381,9.381" style="fill:none;stroke:#2d3384;stroke-width:4.69px;stroke-linecap:round;stroke-linejoin:round;"/><path d="M335.291,1094.72l9.381,-9.382" style="fill:none;stroke:#2d3384;stroke-width:4.69px;stroke-linecap:round;stroke-linejoin:round;"/><path d="M379.909,1057.75c0,4.228 -3.428,7.656 -7.656,7.656c-4.231,0 -7.656,-3.428 -7.656,-7.656c0,-4.231 3.425,-7.659 7.656,-7.659c4.228,0 7.656,3.428 7.656,7.659Z" style="fill:none;stroke:#2d3384;stroke-width:4.69px;stroke-linecap:round;stroke-linejoin:round;"/><path d="M374.51,1050.47l8.612,-20.297" style="fill:none;stroke:#2d3384;stroke-width:4.69px;stroke-linecap:round;stroke-linejoin:round;"/><path d="M1007.49,294.347l0,144.806" style="fill:none;stroke:#2d3384;stroke-width:4.69px;stroke-linecap:round;stroke-linejoin:round;"/><path d="M935.109,364.794l144.782,0" style="fill:none;stroke:#2d3384;stroke-width:4.69px;stroke-linecap:round;stroke-linejoin:round;"/><rect x="901.047" y="799.5" width="114.656" height="170.091" style="fill:none;stroke:#2d3384;stroke-width:4.69px;stroke-linecap:round;stroke-linejoin:round;"/><rect x="919.266" y="814.688" width="78.218" height="124.528" style="fill:none;stroke:#2d3384;stroke-width:4.69px;stroke-linecap:round;stroke-linejoin:round;"/><path d="M965.391,954.15c0,3.875 -3.156,7.013 -7,7.013c-3.875,0 -7.032,-3.138 -7.032,-7.013c0,-3.872 3.157,-7.012 7.032,-7.012c3.844,0 7,3.14 7,7.012Z" style="fill:none;stroke:#2d3384;stroke-width:4.69px;stroke-linecap:round;stroke-linejoin:round;"/><path d="M932.547,837.466l51.656,0" style="fill:none;stroke:#2d3384;stroke-width:4.69px;stroke-linecap:round;stroke-linejoin:round;"/><path d="M932.547,849.616l51.656,0" style="fill:none;stroke:#2d3384;stroke-width:4.69px;stroke-linecap:round;stroke-linejoin:round;"/><path d="M932.547,861.766l51.656,0" style="fill:none;stroke:#2d3384;stroke-width:4.69px;stroke-linecap:round;stroke-linejoin:round;"/><path d="M932.547,873.916l51.656,0" style="fill:none;stroke:#2d3384;stroke-width:4.69px;stroke-linecap:round;stroke-linejoin:round;"/><path d="M932.547,886.063l51.656,0" style="fill:none;stroke:#2d3384;stroke-width:4.69px;stroke-linecap:round;stroke-linejoin:round;"/><path d="M932.547,898.213l51.656,0" style="fill:none;stroke:#2d3384;stroke-width:4.69px;stroke-linecap:round;stroke-linejoin:round;"/><path d="M932.547,910.363l51.656,0" style="fill:none;stroke:#2d3384;stroke-width:4.69px;stroke-linecap:round;stroke-linejoin:round;"/><g><clipPath id="_clip9"><path d="M448.425,9.181l0,22.282l0,-22.282Z"/></clipPath><g clip-path="url(#_clip9)"><path d="M372.856,80.056l154.353,0" style="fill:none;stroke:#2d3384;stroke-width:3.23px;"/><path d="M372.856,90.544l154.353,0" style="fill:none;stroke:#2d3384;stroke-width:3.23px;"/><path d="M372.856,48.109l154.353,0" style="fill:none;stroke:#2d3384;stroke-width:3.23px;"/><path d="M372.856,58.597l154.353,0" style="fill:none;stroke:#2d3384;stroke-width:3.23px;"/><path d="M372.856,69.084l154.353,0" style="fill:none;stroke:#2d3384;stroke-width:3.23px;"/><path d="M372.856,79.572l154.353,0" style="fill:none;stroke:#2d3384;stroke-width:3.23px;"/><path d="M372.856,16.163l154.353,0" style="fill:none;stroke:#2d3384;stroke-width:3.23px;"/><path d="M372.856,26.65l154.353,0" style="fill:none;stroke:#2d3384;stroke-width:3.23px;"/><path d="M372.856,37.138l154.353,0" style="fill:none;stroke:#2d3384;stroke-width:3.23px;"/><path d="M372.856,47.625l154.353,0" style="fill:none;stroke:#2d3384;stroke-width:3.23px;"/><path d="M372.856,5.194l154.353,0" style="fill:none;stroke:#2d3384;stroke-width:3.23px;"/><path d="M372.856,15.678l154.353,0" style="fill:none;stroke:#2d3384;stroke-width:3.23px;"/></g></g><path d="M448.425,9.181l0,22.282" style="fill:none;stroke:#2d3384;stroke-width:4.69px;"/><path d="M582.828,107.403l0,21.578" style="fill:none;stroke:#2d3384;stroke-width:2.88px;"/><path d="M591.981,118.191l-18.312,0" style="fill:none;stroke:#2d3384;stroke-width:2.88px;"/></svg>